<!-- Created with Inkscape (http://www.inkscape.org/) -->
<svg xmlns:rdf="http://www.w3.org/1999/02/22-rdf-syntax-ns#" style="enable-background:new;" xmlns="http://www.w3.org/2000/svg" xmlns:osb="http://www.openswatchbook.org/uri/2009/osb" height="315" width="15.00043" version="1.1" xmlns:cc="http://creativecommons.org/ns#" xmlns:xlink="http://www.w3.org/1999/xlink" xmlns:dc="http://purl.org/dc/elements/1.1/">
 <defs></defs>
 <metadata>
  <rdf:RDF>
   <cc:Work rdf:about="">
    <dc:format>image/svg+xml</dc:format>
    <dc:type rdf:resource="http://purl.org/dc/dcmitype/StillImage"/>
    <dc:title/>
    <cc:license rdf:resource=""/>
   </cc:Work>
  </rdf:RDF>
 </metadata>
 <g font-family="Sans" fill="#000000" font-weight="normal" transform="translate(-4.1684036,149.99995)" font-style="normal">
  <text style="letter-spacing:0px;word-spacing:0px;" xml:space="preserve" font-size="40px" y="615.36218" x="-1021" line-height="125%"><tspan x="-1021" y="615.36218"/></text>
  <text style="letter-spacing:0px;word-spacing:0px;" line-height="125%" font-size="40px" y="978.71704" x="-1536.1298" xml:space="preserve"><tspan y="978.71704" x="-1536.1298"/></text>
  <text style="letter-spacing:0px;word-spacing:0px;" xml:space="preserve" font-size="9.60000038px" stroke="#ffffff" y="679.10425" x="-764.76129" stroke-width="0.24000001" line-height="125%"><tspan y="679.10425" x="-764.76129" stroke-width="0.24000001"/></text>
  <text style="letter-spacing:0px;word-spacing:0px;" line-height="125%" font-size="40px" y="866.0755" x="-2035.4727" xml:space="preserve"><tspan y="866.0755" x="-2035.4727"/></text>
 </g>
 <g transform="translate(-4.1684036,149.99992)">
  <g style="enable-background:new;" transform="matrix(0.99757915,0,0,1.0024911,-61.047776,-328.34536)" stroke-linecap="butt">
   <path stroke-linejoin="miter" d="m66.309874,343.5696c-0.0619,3.43121,0.13014,6.87788-0.10673,10.29927-0.49061,1.36336-0.32411,3.55257,1.59257,2.8636,3.8467-0.021,7.69345,0.005,11.54017-0.005,0.96668-1.34368,0.14658-3.17129,0.33134-4.71441-0.23237-2.37924-0.50235-4.76175-0.27243-7.15316,0.38895-2.51749-2.13048-1.57504-3.59016-1.7177-1.92281,0.31661-3.879,0.15233-5.82446,0.24536-1.2264-0.31321-2.44127,0.26541-3.67032,0.18194z" stroke="#FFF" stroke-width="1.18524241px" fill="none"/>
   <rect stroke-linejoin="round" stroke-dasharray="none" fill-rule="nonzero" stroke-dashoffset="0" height="1.7147655" width="11.80465" stroke="#FFF" stroke-miterlimit="4" y="343.89313" x="66.615173" stroke-width="1.42161512" fill="#FFF"/>
   <path stroke-linejoin="round" d="m475.17577,248.8679c0,0.17086-0.21765,0.30936-0.48613,0.30936-0.26849,0-0.48614-0.1385-0.48614-0.30936,0-0.17085,0.21765-0.30935,0.48614-0.30935,0.26848,0,0.48613,0.1385,0.48613,0.30935z" fill-rule="nonzero" transform="matrix(1.1513308,0,0,1.2201528,-477.51818,40.721558)" stroke-dashoffset="0" stroke="#FFF" stroke-miterlimit="4" stroke-dasharray="none" stroke-width="1.04200006" fill="#FFF"/>
   <path stroke-linejoin="round" d="m475.35253,248.91209c0,0.2929-0.45509,0.53033-1.01647,0.53033s-1.01647-0.23743-1.01647-0.53033c0-0.29289,0.45509-0.53033,1.01647-0.53033s1.01647,0.23744,1.01647,0.53033z" fill-rule="nonzero" transform="matrix(0.33126905,0,0,0.67288614,-88.437266,176.93114)" stroke-dashoffset="0" stroke="#666" stroke-miterlimit="4" stroke-dasharray="none" stroke-width="1.04200006" fill="#666"/>
   <path stroke-linejoin="round" d="m475.35253,248.91209c0,0.2929-0.45509,0.53033-1.01647,0.53033s-1.01647-0.23743-1.01647-0.53033c0-0.29289,0.45509-0.53033,1.01647-0.53033s1.01647,0.23744,1.01647,0.53033z" fill-rule="nonzero" stroke-dashoffset="0" transform="matrix(0.33126905,0,0,0.67288614,-81.211996,176.93114)" stroke="#666" stroke-miterlimit="4" stroke-dasharray="none" stroke-width="1.04200006" fill="#666"/>
   <path stroke-linejoin="miter" d="m66.716934,346.37362c0.49922-0.15972,1.01479-0.26894,1.53794-0.21553,0.40222,0.054,0.96487-0.16127,1.10215,0.22087,0.71366-0.0134,1.42864,0.00015,2.14288-0.005,0.31543-0.19981,0.70847-0.0753,1.04973-0.1064,0.17473,0.3901,0.78244,0.21318,1.14167,0.13988,0.30977-0.14343,0.58765,0.0875,0.73295,0.0304,0.48134,0.13559,0.88057-0.11262,1.3717-0.13464,0.3169-0.0488,0.84515-0.5968,0.82624,0.0736,0.48966,0.20659,0.90639-0.30371,1.38522-0.33168,0.18602-0.10701,0.488-0.19149,0.71785-0.31826" stroke="#FFF" stroke-miterlimit="4" stroke-dasharray="none" stroke-width="0.59262121" fill="none"/>
   <path stroke-linejoin="miter" d="m67.529044,348.18443,10.21806,0,0,0,0,0" stroke="#FFF" stroke-miterlimit="4" stroke-dasharray="none" stroke-width="0.59262121" fill="none"/>
   <path stroke-linejoin="miter" d="m67.493064,349.63337,10.21806,0,0,0,0,0" stroke="#FFF" stroke-miterlimit="4" stroke-dasharray="none" stroke-width="0.59262121" fill="none"/>
   <path stroke-linejoin="miter" d="m67.493064,351.27295,10.21806,0,0,0,0,0" stroke="#FFF" stroke-miterlimit="4" stroke-dasharray="none" stroke-width="0.59262121" fill="none"/>
   <path stroke-linejoin="miter" d="m67.493064,352.8744,10.21806,0,0,0,0,0" stroke="#FFF" stroke-miterlimit="4" stroke-dasharray="none" stroke-width="0.59262121" fill="none"/>
   <path stroke-linejoin="miter" d="m67.457084,354.20894,10.21806,0,0,0,0,0" stroke="#FFF" stroke-miterlimit="4" stroke-dasharray="none" stroke-width="0.59262121" fill="none"/>
  </g>
  <g stroke-linejoin="miter" style="enable-background:new;" transform="matrix(1.0119958,0,0,0.98925496,-110.93059,-293.1628)" stroke="#FFF" stroke-linecap="butt" stroke-dasharray="none" stroke-miterlimit="4" fill="none">
   <path d="m115.46112,349.61176,11.29867,0" stroke-dashoffset="0" stroke-width="1.17438543"/>
   <path d="m123.97811,352.92352,3.5363-3.02111-3.63592-3.11961" stroke-dashoffset="0" stroke-width="1.0317539"/>
   <g transform="matrix(1.4193132,0,0,0.96245611,-649.09658,114.35546)" stroke-width="1.5">
    <path d="m538.67085,240.257c0.4461-4.05132,7.40382-3.43467,8.05098,0.149"/>
    <path d="m546.87093,237.27516,0,2.83275-2.83276-0.59637"/>
   </g>
   <g transform="matrix(1.5073093,0,0,1.0006549,-695.96653,110.96022)" stroke-width="1.47252965">
    <path d="m546.42365,243.08976c-1.98223,1.82858-5.84501,2.89905-7.74203,0.4283-0.32478-0.52986-0.49756-1.14903-0.45804-1.77034"/>
    <path d="m537.77629,244.87886,0.29819-2.98184,2.53457,0.74546"/>
   </g>
  </g>
  <g style="enable-background:new;" transform="matrix(0.99999816,0,0,0.99999809,-130.37138,-279.92632)">
   <rect fill-opacity="0.94117647" height="7.8361144" width="4.0740547" y="343.50891" x="134.54004" fill="#FFF"/>
   <rect fill-opacity="0.94117647" height="3.9180584" width="3.5185213" y="339.92691" x="146.02155" fill="#FFF"/>
   <rect fill-opacity="0.94117647" height="3.9180584" width="3.5185213" y="345.46793" x="146.02155" fill="#FFF"/>
   <rect fill-opacity="0.94117647" height="3.9180584" width="3.5185213" y="351.00888" x="146.02155" fill="#FFF"/>
   <path stroke-linejoin="miter" d="m145.83638,341.88598-7.40742,5.48528,7.77778,0" stroke="#FFF" stroke-linecap="round" stroke-miterlimit="1" stroke-dasharray="none" stroke-width="1.07745397" fill="none"/>
   <path stroke-linejoin="miter" d="m138.42896,347.95897,7.40742,4.89757" stroke="#FFF" stroke-linecap="round" stroke-width="1.07745397px" fill="none"/>
  </g>
  <path stroke-linejoin="miter" style="enable-background:new;" d="m4.9099629,76.41106c0.007,1.93325-0.0148,3.86661,0.0113,5.79977,0.61996,1.21603,0.097,2.62429,0.27516,3.92411,0.003,1.00441,0.009,2.00899-0.0145,3.01315,2.40696,0.20825,4.8229801-0.0434,7.2317801,0.10927,0.71613,0.0306,1.40845-0.18153,2.09167-0.37194,0.85361,0.0866,1.66217-0.0802,2.48322-0.28964,0.74295-0.0212,1.64775-0.3233,1.39785-1.31393,0.0361-2.02041-0.0437-4.04444,0.019-6.06265-0.31179-0.68475-0.90558-1.26643-0.58825-2.11243,0.0427-1.0187-0.0233-2.04127,0.002-3.05849-0.42736-0.56767-1.28953-0.16672-1.88746-0.22683-1.18692,0.14349-2.30705,0.642-3.46804,0.89954-1.90893,0.0302-3.8188601-0.0445-5.7271201,0.0119-0.61737-0.0275-1.23774-0.11164-1.82681-0.32179z" stroke-dashoffset="0" stroke="#FFF" stroke-linecap="butt" stroke-miterlimit="4" stroke-dasharray="1.47923448, 1.47923448" stroke-width="1.47923434" fill="none"/>
  <g style="enable-background:new;" transform="matrix(1,0,0,0.99996864,-191.33159,-236.51858)" fill="none">
   <rect height="15" width="15" y="341.52954" x="195.5"/>
   <g stroke-dasharray="none" stroke="#FFF" stroke-miterlimit="4" transform="matrix(1.0471204,0,0,1.0471204,-484.73898,223.71574)">
    <rect stroke-linejoin="round" stroke-dashoffset="0" height="9.25" width="7.875" stroke-linecap="round" y="116.98718" x="652.875" stroke-width="1.20000005"/>
    <path stroke-linejoin="miter" d="m654.74998,118.97846,0,5.50872" stroke-linecap="butt" stroke-width="1"/>
    <path stroke-linejoin="miter" d="m656.74998,118.97846,0,5.50872" stroke-linecap="butt" stroke-width="1"/>
    <path stroke-linejoin="miter" d="m658.74998,118.97846,0,5.50872" stroke-linecap="butt" stroke-width="1"/>
    <rect stroke-linejoin="round" stroke-dashoffset="0" height="2" width="3.375" stroke-linecap="round" y="113.11218" x="655.0625" stroke-width="1.20000005"/>
    <path stroke-linejoin="miter" d="m652.2065,115.23718,9.16848,0,0,0" stroke-linecap="round" stroke-width="1.28465021"/>
   </g>
  </g>
  <g style="enable-background:new;" transform="translate(-115.38775,-216.79972)">
   <rect ry="0" height="14.999718" width="15" y="336.79974" x="119.55616" fill="none"/>
   <g style="enable-background:new;" transform="matrix(1.0801915,0,0,1.0801469,-516.08204,251.33356)">
    <g transform="translate(0,2.988066e-5)">
     <text style="letter-spacing:0px;word-spacing:0px;" line-height="125%" font-weight="normal" font-size="40px" font-style="normal" y="615.36218" x="-1021" font-family="Sans" xml:space="preserve" fill="#000000"><tspan y="615.36218" x="-1021"/></text>
     <path stroke-linejoin="miter" d="m591.10323,90.572801-0.079,1.981772,1.58417-1.022635z" stroke="#333" stroke-linecap="butt" stroke-miterlimit="4" stroke-dasharray="none" stroke-width="0.91400635" fill="#333"/>
     <path stroke-linejoin="miter" d="m591.98019,88.941581,4.60303-7.585022,1.83507,1.172063-4.60303,7.585021z" stroke="#333" stroke-linecap="butt" stroke-miterlimit="4" stroke-dasharray="none" stroke-width="0.91400635" fill="#333"/>
     <path stroke-linejoin="miter" d="m597.15626,79.62073,2.56588,1.622381" stroke="#333" stroke-linecap="butt" stroke-miterlimit="4" stroke-dasharray="none" stroke-width="0.99230665" fill="none"/>
    </g>
   </g>
  </g>
  <g style="enable-background:new;" transform="matrix(0.96402814,-0.19196243,0.23216436,0.75102104,-158.97474,-143.65539)">
   <rect ry="0" height="14.999718" width="15" y="336.79974" x="89.55616" fill="none"/>
   <g style="enable-background:new;" transform="matrix(1.0801915,0,0,1.0801915,-546.08204,251.33002)" stroke="#FFF" stroke-width="1.14064026" fill="#FFF">
    <g transform="translate(0,2.988066e-5)" stroke-width="1.14064026">
     <text style="letter-spacing:0px;word-spacing:0px;" font-family="Sans" font-weight="normal" xml:space="preserve" font-size="40px" stroke="#ffffff" font-style="normal" y="615.36218" x="-1021" line-height="125%" fill="#ffffff"><tspan y="615.36218" x="-1021" stroke-width="1.14064026"/></text>
     <g stroke-linejoin="miter" stroke="#FFF" stroke-linecap="butt" stroke-dasharray="none" stroke-miterlimit="4" fill="#FFF">
      <path d="m591.30521,90.698995-0.24317,1.93981,1.54636-1.106867z" stroke-width="1.04255235"/>
      <path d="m591.98019,88.941581,4.60303-7.585022,1.80124,1.312552-4.54831,7.599008z" stroke-width="1.04255235"/>
      <path d="m597.15626,79.62073,2.40568,1.805139" stroke-width="1.13186479"/>
     </g>
    </g>
   </g>
  </g>
  <g style="enable-background:new;" transform="translate(5.3541245,-357.79007)" fill="none">
   <g stroke-linejoin="round" stroke="#FFF" stroke-linecap="round" stroke-miterlimit="4" stroke-dasharray="none" stroke-width="1.45709586" transform="translate(-645.45768,280.28013)" stroke-dashoffset="0">
    <rect height="6.3167939" width="5.6489015" y="80.413879" x="647.32251"/>
    <rect height="6.3167939" width="5.6489015" y="83.288879" x="650.57251"/>
   </g>
   <rect height="14.999676" width="15" y="357.79007" x="-1.1857157"/>
   <rect height="14.999676" width="15" y="357.79007" x="-1.1857157"/>
   <rect ry="0" height="14.475105" width="14.400997" y="358.05237" x="-0.88621426"/>
  </g>
  <g style="enable-background:new;" transform="translate(-161.63739,-274.71643)">
   <rect height="15" width="15" y="409.71649" x="165.8058" fill="none"/>
   <g transform="matrix(0.94385806,0,0,0.94385806,37.970187,73.220906)">
    <path d="m147.95207,365.60917,0,2.65642c0,1.64247-1.32228,2.96475-2.96475,2.96475h-6.08313c-1.64247,0-2.96475-1.32228-2.96475-2.96475v-6.18787c0-1.64247,1.32228-2.96475,2.96475-2.96475l2.89377-0.00001" stroke-dashoffset="0" stroke="#FFF" stroke-linecap="butt" stroke-miterlimit="4" stroke-dasharray="none" stroke-width="1" fill="none"/>
    <g transform="translate(71.323223,-45.323223)" fill="#FFF">
     <path d="m74.367578,411.40184,5.640859-4.46949-5.530247-4.42566-0.110615,0.0876-0.000002,8.80749z"/>
     <path d="m66.1875,412.5809c0.771718-8.12364,8.21875-7.59206,8.21875-7.59206v3.91044s-6.926038,0.13575-8.21875,3.68162z"/>
    </g>
   </g>
  </g>
  <g style="enable-background:new;" transform="translate(-153.2487,-207.50101)">
   <rect ry="0" height="15" width="15" y="357.5011" x="157.41731" fill="none"/>
   <g transform="matrix(0.97164027,0,0,1.5377013,-3.8866805,-171.02684)" stroke="#FFF" stroke-miterlimit="4" stroke-dasharray="none" stroke-width="1.29999995">
    <path stroke-linejoin="miter" d="m171.34619,348.59042,4.76963,0,0,0" stroke-linecap="round" fill="#FFF"/>
    <g stroke-linecap="butt" fill="none">
     <path d="m174.82953,347.63767c0.29614-0.41377,0.78092-0.68243,1.33076-0.68243h2.83688c0.90589,0,1.63519,0.72928,1.63519,1.63517s-0.7293,1.6352-1.63519,1.6352h-2.83688c-0.50352,0-0.95249-0.22532-1.25198-0.58104"/>
     <path d="m172.63237,349.54316c-0.29612,0.41379-0.78089,0.68247-1.33075,0.68244h-2.83689c-0.90589,0-1.63519-0.72929-1.63519-1.63518s0.7293-1.63519,1.63519-1.63519h2.83689c0.50351,0,0.95248,0.22532,1.25197,0.58105"/>
    </g>
   </g>
  </g>
  <g transform="matrix(1.0714286,0,0,1.0714286,-92.380075,-336.60205)" fill-opacity="0.94117647">
   <rect style="enable-background:new;" transform="translate(0,2.988066e-5)" height="14" width="14" y="342.16177" x="90.111916" fill="#FFF"/>
   <path d="m92.036331,347.7032-0.36409-0.013-0.0229-0.44602c-0.0126-0.24531-0.0338-0.8577-0.0473-1.36085s-0.0406-1.01326-0.0603-1.13358c-0.0197-0.12031-0.0359-0.39218-0.0361-0.60413l-0.00023-0.38537,1.32251-0.0144,1.32252-0.0144,0.49717-0.14934c0.44714-0.13429,0.73241-0.18859,1.32252-0.25173l0.18893-0.0203,0.00003,0.90873c0.00004,1.11907,0.0499,1.68445,0.1822,2.06788,0.10122,0.29327,0.17035,0.69306,0.20361,1.1776l0.0185,0.26848-2.0815-0.008c-1.14482-0.005-2.24533-0.0141-2.44557-0.0213z" stroke-opacity="0.61835746" stroke-dashoffset="0" stroke="#FFF" stroke-linecap="butt" stroke-miterlimit="4" stroke-dasharray="none" stroke-width="0.05966213" fill="#0F0"/>
   <path d="m98.566681,347.41559c0-0.1747-0.0167-0.39396-0.037-0.48725-0.0203-0.0933-0.0663-0.3303-0.10226-0.52668-0.0359-0.19639-0.10117-0.45593-0.145-0.57673-0.0703-0.19378-0.0823-0.35443-0.10241-1.36319l-0.0228-1.14353,0.13508,0.002c0.22897,0.003,0.68092,0.0719,0.91067,0.13893,0.13474,0.0393,0.509,0.0786,0.974479,0.10235,1.078,0.0549,1.73316,0.10271,1.85947,0.13556,0.10566,0.0275,0.10937,0.0375,0.10937,0.2959,0,0.14711,0.0266,0.35533,0.0592,0.46272,0.0481,0.15837,0.0593,0.48634,0.0597,1.73652l0.00044,1.54128h-1.84953-1.849529v-0.31763z" stroke-opacity="0.61835746" stroke-dashoffset="0" stroke="#FFF" stroke-linecap="butt" stroke-miterlimit="4" stroke-dasharray="none" stroke-width="0.05966213" fill="#F00"/>
   <path d="m95.840831,354.41475c-0.43054-0.061-0.77732-0.0734-2.07219-0.0737l-1.55512-0.00049-0.0287-1.26187c-0.0248-1.09075-0.0413-1.32415-0.12171-1.72112-0.0886-0.43757-0.19555-1.19529-0.17138-1.21449,0.006-0.005,0.13668,0.005,0.28982,0.023,0.15312,0.0176,1.20468,0.033,2.33676,0.0341l2.05834,0.002v0.17104c0,0.0941-0.0167,0.18803-0.0372,0.20882-0.0563,0.0573-0.0839,0.6786-0.10522,2.37455-0.0107,0.8477-0.0322,1.53904-0.0479,1.53632-0.0157-0.003-0.26118-0.0379-0.54557-0.0782z" stroke-opacity="0.61835746" stroke-dashoffset="0" stroke="#FFF" stroke-linecap="butt" stroke-miterlimit="4" stroke-dasharray="none" stroke-width="0.05966213" fill="#FF0"/>
   <path d="m99.668061,354.59994c-0.11675-0.0301-0.45793-0.0527-0.82626-0.0549l-0.6274-0.004,0.0177-1.48161c0.0184-1.53941,0.0443-2.05182,0.10655-2.11601,0.0202-0.0208,0.0367-0.2311,0.0367-0.46735v-0.42957h1.909189,1.90919v0.23232c0,0.12778,0.0293,0.32019,0.065,0.42758,0.055,0.16532,0.0677,0.46964,0.083,1.98512l0.0181,1.78986-0.33161,0.09c-0.30293,0.0823-0.41074,0.0896-1.24642,0.0848-0.599-0.004-0.983489-0.0229-1.113699-0.0563z" stroke-opacity="0.61835746" stroke-dashoffset="0" stroke="#FFF" stroke-linecap="butt" stroke-miterlimit="4" stroke-dasharray="none" stroke-width="0.05966213" fill="#00F"/>
  </g>
  <rect opacity="0.9" fill-opacity="0.29951692" ry="3.1607873" height="13.959272" width="13.959273" stroke="#63f701" y="-14.479552" x="4.6887722" stroke-width="1.0407275" fill="#63f701"/>
  <text style="writing-mode:lr-tb;letter-spacing:0px;text-anchor:start;word-spacing:0px;text-align:start;" line-height="125%" font-weight="normal" font-size="10px" font-style="normal" font-stretch="normal" font-variant="normal" y="-4.0355606" x="8.3896008" font-family="Georgia" xml:space="preserve" fill="#ffffff"><tspan y="-4.0355606" x="8.3896008">B</tspan></text>
  <rect stroke-linejoin="miter" stroke-dasharray="none" height="10.668582" width="11.313355" stroke="#FFF" stroke-linecap="round" stroke-miterlimit="4" y="-29.499918" x="4.6684036" stroke-width="0.99999994" fill="#999"/>
  <rect stroke-linejoin="miter" stroke-dasharray="none" height="7.2332187" width="8.3221102" stroke="#FFF" stroke-linecap="round" stroke-miterlimit="4" y="-22.733137" x="10.346295" stroke-width="1" fill="#333"/>
  <path stroke-linejoin="miter" d="m5.2572837,91.50067c2.3893766-1.327645,8.3865813,1.214317,3.3622717,3.844215-1.6876569,0.883378-3.9443653,2.353127-1.2762216,3.334189,2.4289859,0.893125-2.3359288,2.923826,0.2263316,4.571806,2.7326816,1.72113,7.2952486,1.12464,9.4838216-1.10355" stroke="#FFF" stroke-linecap="butt" stroke-width="1px" fill="none"/>
  <g style="enable-background:new;" transform="matrix(0.96402814,-0.19196243,0.23216436,0.75102104,-158.97474,-143.65539)">
   <rect ry="0" height="14.999718" width="15" y="336.79974" x="89.55616" fill="none"/>
   <g style="enable-background:new;" transform="matrix(1.0801915,0,0,1.0801915,-546.08204,251.33002)" stroke="#FFF" stroke-width="1.14064026" fill="#FFF">
    <g transform="translate(0,2.988066e-5)" stroke-width="1.14064026">
     <text style="letter-spacing:0px;word-spacing:0px;" font-family="Sans" font-weight="normal" font-size="40px" stroke="#ffffff" line-height="125%" font-style="normal" y="615.36218" x="-1021" xml:space="preserve" fill="#ffffff"><tspan y="615.36218" x="-1021" stroke-width="1.14064026"/></text>
     <g stroke-linejoin="miter" stroke="#FFF" stroke-linecap="butt" stroke-dasharray="none" stroke-miterlimit="4" fill="#FFF">
      <path d="m591.30521,90.698995-0.24317,1.93981,1.54636-1.106867z" stroke-width="1.04255235"/>
      <path d="m591.98019,88.941581,4.60303-7.585022,1.80124,1.312552-4.54831,7.599008z" stroke-width="1.04255235"/>
      <path d="m597.15626,79.62073,2.40568,1.805139" stroke-width="1.13186479"/>
     </g>
    </g>
   </g>
  </g>
  <g style="enable-background:new;" transform="matrix(0.96402814,-0.19196243,0.23216436,0.75102104,-158.97474,-323.65539)">
   <rect ry="0" height="14.999718" width="15" y="336.79974" x="89.55616" fill="none"/>
   <g style="enable-background:new;" transform="matrix(1.0801915,0,0,1.0801915,-546.08204,251.33002)" stroke="#FFF" stroke-width="1.14064026" fill="#FFF">
    <g transform="translate(0,2.988066e-5)" stroke-width="1.14064026">
     <text style="letter-spacing:0px;word-spacing:0px;" font-family="Sans" font-weight="normal" font-size="40px" stroke="#ffffff" line-height="125%" font-style="normal" y="615.36218" x="-1021" xml:space="preserve" fill="#ffffff"><tspan y="615.36218" x="-1021" stroke-width="1.14064026"/></text>
     <g stroke-linejoin="miter" stroke="#FFF" stroke-linecap="butt" stroke-dasharray="none" stroke-miterlimit="4" fill="#FFF">
      <path d="m591.30521,90.698995-0.24317,1.93981,1.54636-1.106867z" stroke-width="1.04255235"/>
      <path d="m591.98019,88.941581,4.60303-7.585022,1.80124,1.312552-4.54831,7.599008z" stroke-width="1.04255235"/>
      <path d="m597.15626,79.62073,2.40568,1.805139" stroke-width="1.13186479"/>
     </g>
    </g>
   </g>
  </g>
  <g style="enable-background:new;" transform="matrix(0.96402814,-0.19196243,0.23216436,0.75102104,-158.97474,-323.65539)">
   <rect ry="0" height="14.999718" width="15" y="336.79974" x="89.55616" fill="none"/>
   <g style="enable-background:new;" transform="matrix(1.0801915,0,0,1.0801915,-546.08204,251.33002)" stroke="#FFF" stroke-width="1.14064026" fill="#FFF">
    <g transform="translate(0,2.988066e-5)" stroke-width="1.14064026">
     <text style="letter-spacing:0px;word-spacing:0px;" font-family="Sans" font-weight="normal" xml:space="preserve" font-size="40px" stroke="#ffffff" font-style="normal" y="615.36218" x="-1021" line-height="125%" fill="#ffffff"><tspan y="615.36218" x="-1021" stroke-width="1.14064026"/></text>
     <g stroke-linejoin="miter" stroke="#FFF" stroke-linecap="butt" stroke-dasharray="none" stroke-miterlimit="4" fill="#FFF">
      <path d="m591.30521,90.698995-0.24317,1.93981,1.54636-1.106867z" stroke-width="1.04255235"/>
      <path d="m591.98019,88.941581,4.60303-7.585022,1.80124,1.312552-4.54831,7.599008z" stroke-width="1.04255235"/>
      <path d="m597.15626,79.62073,2.40568,1.805139" stroke-width="1.13186479"/>
     </g>
    </g>
   </g>
  </g>
  <path stroke-linejoin="miter" d="m5.273337-89.555895,4.6579874,3.81108-4.6579874,3.811081,4.839467-0.06049-4.8999603,6.049334,13.3690283,0.06049" stroke="#FFF" stroke-linecap="butt" stroke-width="1px" fill="none"/>
  <rect stroke-linejoin="miter" stroke-dasharray="none" ry="0.84611809" height="9.9691219" width="9.6922026" stroke="#FFF" stroke-linecap="round" stroke-miterlimit="4" y="-102.48447" x="6.8223019" stroke-width="0.99999994" fill="#FFF"/>
  <path fill="#FFF" d="m4.644966-101.33748c-0.271927,0.0602-0.476562,0.31657-0.476562,0.63394v6.407948c0,0.32628,0.216471,0.58378,0.5,0.63394v-7.675828c-0.0078,0.001-0.0158-0.002-0.02343,0z"/>
  <path fill="#FFF" d="m5.76502-101.97643c-0.435083,0.0706-0.762499,0.37115-0.762499,0.74323v7.512717c0,0.382533,0.346354,0.684427,0.8,0.743235v-8.999182c-0.01248,0.001-0.02528-0.002-0.03749,0z"/>
  <g fill="#FFF" transform="translate(21.983571,-0.13174531)">
   <path d="m-3.291729-101.20573c0.271927,0.0602,0.476562,0.31657,0.476562,0.63394v6.407943c0,0.32628-0.216471,0.58378-0.5,0.63394v-7.675823c0.0078,0.001,0.0158-0.002,0.02343,0z"/>
   <path d="m-4.411783-101.84468c0.435083,0.0706,0.762499,0.37115,0.762499,0.74323v7.512712c0,0.382533-0.346354,0.684427-0.8,0.743235v-8.999177c0.01248,0.001,0.02528-0.002,0.03749,0z"/>
  </g>
  <path stroke-linejoin="miter" d="m216.42858,216.91576c0,1.52864-1.23921,2.76785-2.76786,2.76785-1.52864,0-2.76786-1.23921-2.76786-2.76785,0-1.52865,1.23922-2.76786,2.76786-2.76786,1.52865,0,2.76786,1.23921,2.76786,2.76786z" transform="matrix(0.22031818,0,0,0.22020378,-39.022853,-148.26519)" stroke="#000" stroke-linecap="round" stroke-miterlimit="4" stroke-dasharray="none" stroke-width="4.54006863" fill="#000"/>
  <path stroke-linejoin="miter" d="m7.8207863-94.616719,2.4578847-2.554735c3.666769,3.308995,2.634683,0.122276,1.40524-1.275177,0,0,0.984062-1.109962,1.835687-1.484753,0.813554-0.358046,2.359382,1.959081,2.359382,1.959081v3.355584z" stroke="#333" stroke-linecap="butt" stroke-width="1.00000024px" fill="#333"/>
  <g stroke="#FFF" transform="translate(0.03764135,-0.37641657)">
   <path d="m38.093427-3.2036483c0,3.94990071-3.471671,7.1519279-7.754196,7.1519279-4.282524,0-7.754195-3.20202719-7.754195-7.1519279,0-3.9499008,3.471671-7.1519277,7.754195-7.1519277,4.282525,0,7.754196,3.2020269,7.754196,7.1519277z" transform="matrix(0.90273708,0,0,0.97875706,-15.757587,-108.98791)" stroke-miterlimit="4" stroke-dasharray="none" stroke-width="1.06385374" fill="#333"/>
   <path stroke-linejoin="miter" d="m7.6783812-111.40831,3.3124718,2.40907,4.742857-6.24853" stroke-linecap="butt" stroke-width="1px" fill="none"/>
  </g>
  <path stroke-linejoin="miter" d="m9.4421683-125.17893c-1.1366579,0.27544-0.5311122,0.21025-1.6662033,0.26377-1.7143737,0.0808-3.107561-1.23139-3.107561-2.75039,0-1.36643,1.125858-2.50013,2.617723-2.73219,0.01638-2.27359,1.971685-4.10201,4.383676-4.10201,2.41199,0,4.367295,1.82842,4.367295,4.08391l0.01488,0.003c1.49037,0.21738,2.616227,1.35108,2.616227,2.7175,0,1.51901-1.398802,2.91153-3.10756,2.7504-1.135091-0.10705-0.636012-0.0418-1.666204-0.26378" stroke="#FFF" stroke-linecap="round" stroke-miterlimit="4" stroke-dasharray="none" stroke-width="1" fill="none"/>
  <path stroke-linejoin="miter" d="m11.668305-126.60307,0,4.68525" stroke="#FFF" stroke-linecap="square" stroke-miterlimit="4" stroke-dasharray="none" stroke-width="1.49999988000000006" fill="none"/>
  <path stroke-linejoin="miter" d="m10.793152-122.46775,0.915085,1.48856,0.835219-1.48856z" stroke="#FFF" stroke-linecap="butt" stroke-width="1px" fill="#FFF"/>
  <path stroke-linejoin="miter" d="m7.776065-139.94853c-1.7047134,0.19877-3.107561-1.22734-3.107561-2.74134,0-1.36193,1.125858-2.4919,2.617723-2.72319,0.01638-2.26611,1.971685-4.08851,4.383675-4.08851s4.367295,1.8224,4.367295,4.07047l0.01488,0.003c1.49037,0.21666,2.616227,1.34663,2.616227,2.70855,0,1.51401-1.44315,2.99959-3.10756,2.74135" stroke="#FFF" stroke-linecap="round" stroke-miterlimit="4" stroke-dasharray="none" stroke-width="1" fill="none"/>
  <path d="m11.668404-135.74992,0-5.53707" stroke="#FFF" stroke-linecap="square" stroke-miterlimit="4" stroke-dasharray="none" stroke-width="1.5" fill="#FFF"/>
  <path stroke-linejoin="miter" fill="#FFF" transform="matrix(1,0,0,-1,4.2060453,-136.88635)" stroke="#FFF" stroke-linecap="square" stroke-miterlimit="4" stroke-dasharray="none" stroke-width="1.5" d="m7.4154201,6.3754908-1.3365464-2.3149661,2.6730927-1E-7z"/>
 </g>
 <g stroke-linejoin="miter" stroke="#FFF" stroke-linecap="round" stroke-miterlimit="4" stroke-dasharray="none" transform="translate(-4.1684036,149.99995)">
  <rect style="enable-background:new;" height="7.0621181" width="8.3221102" y="-37.562069" x="10.346295" stroke-width="1" fill="#333"/>
  <rect style="enable-background:new;" height="10.668582" width="11.313355" y="-44.499947" x="4.6684036" stroke-width="0.99999994" fill="#999"/>
  <rect style="enable-background:new;" height="5.8630815" width="6.5954971" y="-51.363026" x="12.072906" stroke-width="1" fill="#333"/>
  <rect style="enable-background:new;" height="5.6064882" width="5.8273597" y="-59.499943" x="4.6684036" stroke-width="1" fill="#333"/>
  <rect style="enable-background:new;" height="7.672575" width="9.8357286" y="-56.470844" x="6.7820663" stroke-width="0.99999988" fill="#999"/>
  <rect style="enable-background:new;" height="7.672575" width="9.8357286" y="-71.470848" x="6.7820663" stroke-width="0.99999988" fill="#999"/>
  <rect style="enable-background:new;" height="5.8630815" width="6.5954971" y="-66.363029" x="12.072906" stroke-width="1" fill="#333"/>
  <rect style="enable-background:new;" height="5.6064882" width="5.8273597" y="-74.499947" x="4.6684036" stroke-width="1" fill="#333"/>
 </g>
</svg>
