<!-- Created with Inkscape (http://www.inkscape.org/) -->
<svg xmlns:rdf="http://www.w3.org/1999/02/22-rdf-syntax-ns#" style="enable-background:new;" xmlns="http://www.w3.org/2000/svg" xmlns:osb="http://www.openswatchbook.org/uri/2009/osb" height="1120" width="70" version="1.1" xmlns:cc="http://creativecommons.org/ns#" xmlns:xlink="http://www.w3.org/1999/xlink" xmlns:dc="http://purl.org/dc/elements/1.1/">
 <defs></defs>
 <metadata>
  <rdf:RDF>
   <cc:Work rdf:about="">
    <dc:format>image/svg+xml</dc:format>
    <dc:type rdf:resource="http://purl.org/dc/dcmitype/StillImage"/>
    <dc:title/>
    <cc:license rdf:resource=""/>
   </cc:Work>
  </rdf:RDF>
 </metadata>
 <g transform="translate(-5.9604645e-8,587.99997)">
  <rect stroke-dasharray="none" stroke-dashoffset="0" ry="3.5184" height="14.38" width="52.833" stroke="#FFF" stroke-miterlimit="4" y="202.81087" x="8.5835247" stroke-width="1.16690004" fill="none"/>
  <g style="letter-spacing:0px;word-spacing:0px;" font-family="Sans" font-size="9.60000038px" line-height="125%" font-style="normal" font-weight="normal" fill="#FFF">
   <path d="m14.381499,208.40988c0.215619-0.38749,0.473432-0.67343,0.773437-0.85781,0.299994-0.18437,0.653119-0.27656,1.059375-0.27656,0.546868,0,0.968742,0.19219,1.265625,0.57656,0.296867,0.38125,0.445304,0.925,0.445313,1.63125v3.16875h-0.867188v-3.14063c-0.000008-0.50312-0.08907-0.87655-0.267187-1.12031-0.178133-0.24374-0.450007-0.36562-0.815625-0.36562-0.446882,0-0.800006,0.14844-1.059375,0.44531-0.259381,0.29688-0.389068,0.70156-0.389063,1.21406v2.96719h-0.867187v-3.14063c-0.000005-0.50624-0.08907-0.87968-0.267188-1.12031-0.178129-0.24374-0.453129-0.36562-0.825-0.36562-0.440628,0-0.790627,0.15-1.05,0.45-0.259377,0.29688-0.389064,0.7-0.389063,1.20937v2.96719h-0.867187v-5.25h0.867187v0.81562c0.196873-0.32187,0.432811-0.55937,0.707813-0.7125,0.274997-0.15312,0.601559-0.22968,0.979687-0.22968,0.381247,0,0.704684,0.0969,0.970313,0.29062,0.268745,0.19376,0.467183,0.47501,0.595313,0.84375"/>
   <path d="m22.036187,210.01301c-0.696878,0-1.17969,0.0797-1.448438,0.23906-0.268751,0.15938-0.403126,0.43125-0.403125,0.81562-0.000001,0.30626,0.1,0.55001,0.3,0.73125,0.203123,0.17813,0.478123,0.26719,0.825,0.26719,0.478122,0,0.860934-0.16875,1.148438-0.50625,0.290621-0.34062,0.435933-0.79218,0.435937-1.35469v-0.19218h-0.857812m1.720312-0.35625,0,2.99531-0.8625,0,0-0.79688c-0.196879,0.31875-0.442191,0.55469-0.735937,0.70782-0.293753,0.15-0.653128,0.225-1.078125,0.225-0.537502,0-0.965627-0.15-1.284375-0.45-0.315626-0.30313-0.473438-0.70781-0.473438-1.21407,0-0.59062,0.196874-1.03593,0.590625-1.33593,0.396874-0.3,0.987498-0.45,1.771875-0.45h1.209375v-0.0844c-0.000004-0.39687-0.131254-0.70312-0.39375-0.91875-0.259378-0.21874-0.625003-0.32812-1.096875-0.32812-0.300002,0-0.592189,0.0359-0.876562,0.10781-0.284377,0.0719-0.557814,0.17969-0.820313,0.32344v-0.79688c0.315624-0.12187,0.621874-0.21249,0.91875-0.27187,0.296873-0.0625,0.585935-0.0937,0.867188-0.0937,0.759371,0,1.326558,0.19688,1.701562,0.59062,0.374995,0.39376,0.562495,0.99063,0.5625,1.79063"/>
   <path d="m25.53775,207.40207,0.8625,0,0,5.25-0.8625,0,0-5.25m0-2.04375,0.8625,0,0,1.09219-0.8625,0,0-1.09219"/>
   <path d="m32.564313,209.48332,0,3.16875-0.8625,0,0-3.14063c-0.000004-0.49687-0.09688-0.86874-0.290625-1.11562-0.193754-0.24687-0.484379-0.37031-0.871875-0.37031-0.465628,0-0.832815,0.14844-1.101563,0.44531-0.268752,0.29688-0.403126,0.70156-0.403125,1.21406v2.96719h-0.867187v-5.25h0.867187v0.81562c0.206248-0.31562,0.448436-0.55155,0.726563-0.70781,0.281247-0.15624,0.604684-0.23437,0.970312-0.23437,0.603121,0,1.059371,0.1875,1.36875,0.5625,0.30937,0.37188,0.464058,0.92031,0.464063,1.64531"/>
   <path d="m38.203375,205.91144,0,1.49063,1.776563,0,0,0.67031-1.776563,0,0,2.85c-0.000002,0.42813,0.05781,0.70313,0.173437,0.825,0.118748,0.12188,0.357811,0.18281,0.717188,0.18281h0.885938v0.72188h-0.885938c-0.665627,0-1.125002-0.12344-1.378125-0.37031-0.253126-0.25-0.379688-0.70313-0.379688-1.35938v-2.85h-0.632812v-0.67031h0.632812v-1.49063h0.867188"/>
   <path d="m43.153376,208.00676c-0.462502,0-0.828127,0.18125-1.096875,0.54375-0.268752,0.35938-0.403126,0.85312-0.403125,1.48125-0.000001,0.62812,0.132811,1.12344,0.398438,1.48593,0.268747,0.35938,0.635935,0.53907,1.101562,0.53907,0.459372,0,0.823434-0.18125,1.092188-0.54375,0.268745-0.3625,0.40312-0.85625,0.403125-1.48125-0.000005-0.62188-0.13438-1.11406-0.403125-1.47657-0.268754-0.36562-0.632816-0.54843-1.092188-0.54843m0-0.73125c0.749996,0,1.339058,0.24375,1.767188,0.73125,0.42812,0.4875,0.642182,1.1625,0.642187,2.025-0.000005,0.85937-0.214067,1.53437-0.642187,2.025-0.42813,0.4875-1.017192,0.73125-1.767188,0.73125-0.753127,0-1.343752-0.24375-1.771875-0.73125-0.425001-0.49063-0.637501-1.16563-0.6375-2.025-0.000001-0.8625,0.212499-1.5375,0.6375-2.025,0.428123-0.4875,1.018748-0.73125,1.771875-0.73125"/>
   <path d="m47.822126,211.86457,0,2.78437-0.867188,0,0-7.24687,0.867188,0,0,0.79687c0.181248-0.31249,0.409373-0.54374,0.684375-0.69375,0.278122-0.15312,0.609372-0.22968,0.99375-0.22968,0.637496,0,1.154683,0.25313,1.551562,0.75937,0.399995,0.50626,0.599995,1.17188,0.6,1.99688-0.000005,0.825-0.200005,1.49062-0.6,1.99687-0.396879,0.50625-0.914066,0.75938-1.551562,0.75938-0.384378,0-0.715628-0.075-0.99375-0.225-0.275002-0.15313-0.503127-0.38594-0.684375-0.69844m2.934375-1.83281c-0.000005-0.63438-0.131255-1.13125-0.39375-1.49063-0.259379-0.36249-0.617191-0.54374-1.073438-0.54375-0.456253,0.00001-0.815627,0.18126-1.078125,0.54375-0.259377,0.35938-0.389064,0.85625-0.389062,1.49063-0.000002,0.63437,0.129685,1.13281,0.389062,1.49531,0.262498,0.35937,0.621872,0.53906,1.078125,0.53906,0.456247,0,0.814059-0.17969,1.073438-0.53906,0.262495-0.3625,0.393745-0.86094,0.39375-1.49531"/>
   <path d="m53.081501,207.40207,0.8625,0,0,5.25-0.8625,0,0-5.25m0-2.04375,0.8625,0,0,1.09219-0.8625,0,0-1.09219"/>
   <path d="m59.522128,207.60363,0,0.80625c-0.243754-0.13437-0.489067-0.23437-0.735937-0.3-0.243754-0.0687-0.490629-0.10312-0.740625-0.10312-0.559378,0-0.993753,0.17813-1.303126,0.53437-0.309376,0.35313-0.464063,0.85-0.464062,1.49063-0.000001,0.64062,0.154686,1.13906,0.464062,1.49531,0.309373,0.35312,0.743748,0.52969,1.303126,0.52969,0.249996,0,0.496871-0.0328,0.740625-0.0984,0.24687-0.0687,0.492183-0.17031,0.735937-0.30469v0.79688c-0.240629,0.1125-0.490629,0.19687-0.75,0.25312-0.256254,0.0563-0.529691,0.0844-0.820312,0.0844-0.790628,0-1.418752-0.24844-1.884376-0.74532-0.465625-0.49687-0.698438-1.16718-0.698437-2.01093-0.000001-0.85625,0.234374-1.52969,0.703125-2.02032,0.471873-0.49062,1.117185-0.73593,1.935938-0.73593,0.265621,0,0.524996,0.0281,0.778125,0.0844,0.25312,0.0531,0.498433,0.13438,0.735937,0.24375"/>
  </g>
 </g>
 <g transform="translate(-5.9604645e-8,587.99997)">
  <rect stroke-dasharray="none" stroke-dashoffset="0" height="14.38" width="52.833" stroke="#FFF" stroke-miterlimit="4" y="62.810287" x="8.58354" stroke-width="1.16690004" fill="none"/>
  <g style="letter-spacing:0px;word-spacing:0px;" font-family="Sans" font-size="9.60000038px" line-height="125%" font-style="normal" font-weight="normal" fill="#FFF">
   <path d="m26.764033,67.93136,0,0.80625c-0.243754-0.134371-0.489066-0.234371-0.735937-0.3-0.243754-0.06875-0.490629-0.103121-0.740625-0.103125-0.559378,0.000004-0.993752,0.178129-1.303125,0.534375-0.309377,0.353128-0.464064,0.850003-0.464063,1.490625-0.000001,0.640627,0.154686,1.139064,0.464063,1.495312,0.309373,0.353126,0.743747,0.529688,1.303125,0.529688,0.249996,0,0.496871-0.03281,0.740625-0.09844,0.246871-0.06875,0.492183-0.170311,0.735937-0.304687v0.796875c-0.240629,0.1125-0.490629,0.196875-0.75,0.253125-0.256253,0.05625-0.529691,0.08437-0.820312,0.08437-0.790628,0-1.418752-0.248438-1.884375-0.745313-0.465626-0.496874-0.698438-1.167185-0.698438-2.010937,0-0.856247,0.234374-1.529684,0.703125-2.020313,0.471873-0.49062,1.117185-0.735932,1.935938-0.735937,0.265621,0.000005,0.524996,0.02813,0.778125,0.08438,0.253121,0.05313,0.498433,0.13438,0.735937,0.24375"/>
   <path d="m28.273409,65.686047,0.8625,0,0,7.29375-0.8625,0,0-7.29375"/>
   <path d="m33.321847,70.340735c-0.696878,0.000002-1.17969,0.07969-1.448438,0.239062-0.268752,0.159378-0.403126,0.431252-0.403125,0.815625-0.000001,0.306252,0.1,0.550001,0.3,0.73125,0.203123,0.178126,0.478123,0.267188,0.825,0.267188,0.478122,0,0.860934-0.168749,1.148438-0.50625,0.290621-0.340624,0.435933-0.792186,0.435937-1.354688v-0.192187h-0.857812m1.720312-0.35625,0,2.995312-0.8625,0,0-0.796875c-0.196879,0.318751-0.442191,0.554688-0.735937,0.707813-0.293754,0.15-0.653128,0.225-1.078126,0.225-0.537501,0-0.965626-0.15-1.284375-0.45-0.315625-0.303125-0.473438-0.707812-0.473437-1.214063-0.000001-0.590623,0.196874-1.035935,0.590625-1.335937,0.396873-0.299997,0.987498-0.449997,1.771875-0.45h1.209375v-0.08437c-0.000004-0.396871-0.131254-0.703121-0.39375-0.91875-0.259378-0.218746-0.625003-0.328121-1.096875-0.328125-0.300002,0.000004-0.59219,0.03594-0.876563,0.107812-0.284376,0.07188-0.557813,0.179692-0.820312,0.323438v-0.796875c0.315624-0.12187,0.621873-0.212495,0.91875-0.271875,0.296873-0.06249,0.585935-0.09374,0.867187-0.09375,0.759372,0.000005,1.326559,0.19688,1.701563,0.590625,0.374995,0.393754,0.562495,0.990629,0.5625,1.790625"/>
   <path d="m40.170284,67.884485,0,0.815625c-0.243754-0.124996-0.496879-0.218746-0.759375-0.28125-0.262503-0.0625-0.534378-0.09375-0.815625-0.09375-0.428127,0.000004-0.750002,0.06563-0.965625,0.196875-0.212502,0.131254-0.318752,0.328129-0.31875,0.590625-0.000002,0.200003,0.07656,0.357816,0.229687,0.473437,0.153123,0.112504,0.460936,0.220316,0.923438,0.323438l0.295312,0.06562c0.612497,0.131253,1.046871,0.31719,1.303125,0.557812,0.259371,0.237502,0.389058,0.570315,0.389063,0.998438-0.000005,0.487501-0.193754,0.873438-0.58125,1.157812-0.384379,0.284375-0.914066,0.426563-1.589063,0.426563-0.281252,0-0.575002-0.02813-0.88125-0.08437-0.303126-0.05313-0.623438-0.134375-0.960937-0.24375v-0.890625c0.318749,0.165626,0.632811,0.290626,0.942187,0.375,0.309373,0.08125,0.615623,0.121875,0.91875,0.121875,0.406248,0,0.718747-0.06875,0.9375-0.20625,0.218747-0.140624,0.328122-0.337499,0.328125-0.590625-0.000003-0.234374-0.07969-0.414061-0.239062-0.539063-0.156253-0.124998-0.501566-0.24531-1.035938-0.360937l-0.3-0.07031c-0.534376-0.1125-0.920313-0.284375-1.157812-0.515628-0.237501-0.234372-0.356251-0.554684-0.35625-0.960937-0.000001-0.493746,0.174999-0.874996,0.525-1.14375,0.349998-0.268745,0.846873-0.40312,1.490625-0.403125,0.318747,0.000005,0.618747,0.02344,0.9,0.07031,0.281246,0.04688,0.540621,0.117193,0.778125,0.210938"/>
   <path d="m45.176535,67.884485,0,0.815625c-0.243754-0.124996-0.496879-0.218746-0.759375-0.28125-0.262503-0.0625-0.534378-0.09375-0.815625-0.09375-0.428127,0.000004-0.750002,0.06563-0.965625,0.196875-0.212501,0.131254-0.318751,0.328129-0.31875,0.590625-0.000001,0.200003,0.07656,0.357816,0.229688,0.473437,0.153123,0.112504,0.460935,0.220316,0.923437,0.323438l0.295313,0.06562c0.612496,0.131253,1.046871,0.31719,1.303125,0.557812,0.25937,0.237502,0.389058,0.570315,0.389062,0.998438-0.000004,0.487501-0.193754,0.873438-0.58125,1.157812-0.384378,0.284375-0.914065,0.426563-1.589062,0.426563-0.281252,0-0.575002-0.02813-0.88125-0.08437-0.303127-0.05313-0.623439-0.134375-0.960938-0.24375v-0.890625c0.318749,0.165626,0.632811,0.290626,0.942188,0.375,0.309373,0.08125,0.615623,0.121875,0.91875,0.121875,0.406247,0,0.718747-0.06875,0.9375-0.20625,0.218746-0.140624,0.328121-0.337499,0.328125-0.590625-0.000004-0.234374-0.07969-0.414061-0.239063-0.539063-0.156253-0.124998-0.501565-0.24531-1.035937-0.360937l-0.3-0.07031c-0.534377-0.112497-0.920314-0.284372-1.157813-0.515625-0.237501-0.234372-0.356251-0.554684-0.35625-0.960937-0.000001-0.493746,0.174999-0.874996,0.525-1.14375,0.349999-0.268745,0.846873-0.40312,1.490625-0.403125,0.318747,0.000005,0.618747,0.02344,0.9,0.07031,0.281246,0.04688,0.540621,0.117193,0.778125,0.210938"/>
  </g>
 </g>
 <g transform="translate(-5.9604645e-8,587.99997)">
  <path d="m61.324332,42.00017c0,6.100097-11.785799,11.045283-26.324288,11.045283-14.538488,0-26.3242868-4.945186-26.3242868-11.045283s11.7857988-11.045283,26.3242868-11.045283c14.538489,0,26.324288,4.945186,26.324288,11.045283z" stroke-dashoffset="0" stroke="#FFF" stroke-miterlimit="4" stroke-dasharray="none" stroke-width="1.46553946" fill="none"/>
  <g style="letter-spacing:0px;word-spacing:0px;" font-family="Sans" font-size="9.60000038px" line-height="125%" font-style="normal" font-weight="normal" fill="#FFF">
   <path d="m14.588363,42.548879,0-3.178125,0.862501,0,0,3.145313c-0.000002,0.496876,0.09687,0.870313,0.290625,1.120312,0.193747,0.246876,0.484372,0.370313,0.871875,0.370313,0.465621,0,0.832808-0.148437,1.101562-0.445313,0.271871-0.296873,0.407808-0.701561,0.407813-1.214062v-2.976563h0.8625v5.25h-0.8625v-0.80625c-0.20938,0.318751-0.453129,0.55625-0.73125,0.7125-0.275004,0.153125-0.595316,0.229688-0.960938,0.229688-0.603127,0-1.060939-0.1875-1.373437-0.5625-0.312501-0.374999-0.468751-0.923436-0.468751-1.645313"/>
   <path d="m24.118052,39.525442,0,0.815625c-0.243754-0.124996-0.496879-0.218746-0.759375-0.28125-0.262504-0.0625-0.534378-0.09375-0.815625-0.09375-0.428128,0.000004-0.750002,0.06563-0.965625,0.196875-0.212502,0.131254-0.318752,0.328129-0.318751,0.590625-0.000001,0.200003,0.07656,0.357816,0.229688,0.473437,0.153123,0.112503,0.460935,0.220316,0.923438,0.323438l0.295312,0.06563c0.612497,0.131253,1.046871,0.31719,1.303125,0.557812,0.259371,0.237502,0.389058,0.570315,0.389063,0.998438-0.000005,0.487501-0.193755,0.873438-0.58125,1.157812-0.384379,0.284375-0.914066,0.426563-1.589063,0.426563-0.281252,0-0.575002-0.02813-0.88125-0.08438-0.303126-0.05313-0.623438-0.134375-0.960938-0.24375v-0.890625c0.31875,0.165626,0.632812,0.290626,0.942188,0.375,0.309373,0.08125,0.615623,0.121875,0.91875,0.121875,0.406247,0,0.718747-0.06875,0.9375-0.20625,0.218747-0.140624,0.328121-0.337499,0.328125-0.590625-0.000004-0.234374-0.07969-0.414061-0.239062-0.539063-0.156254-0.124998-0.501566-0.24531-1.035938-0.360937l-0.3-0.07031c-0.534377-0.112497-0.920314-0.284372-1.157813-0.515625-0.2375-0.234372-0.35625-0.554684-0.35625-0.960937,0-0.493746,0.175-0.874996,0.525-1.14375,0.349999-0.268745,0.846874-0.40312,1.490626-0.403125,0.318747,0.000005,0.618746,0.02344,0.9,0.07031,0.281246,0.04688,0.540621,0.117193,0.778125,0.210938"/>
   <path d="m30.268052,41.780129,0,0.421875-3.965626,0c0.0375,0.593752,0.215624,1.046877,0.534375,1.359375,0.321873,0.309376,0.768748,0.464063,1.340625,0.464063,0.331247,0,0.651559-0.04062,0.960938-0.121875,0.312495-0.08125,0.62187-0.203124,0.928125-0.365625v0.815625c-0.30938,0.13125-0.626567,0.23125-0.951562,0.3-0.325004,0.06875-0.654692,0.103125-0.989063,0.103125-0.837502,0-1.501564-0.24375-1.992188-0.73125-0.4875-0.487499-0.73125-1.146874-0.73125-1.978125,0-0.859372,0.23125-1.540621,0.69375-2.04375,0.465624-0.506245,1.092186-0.75937,1.879688-0.759375,0.706246,0.000005,1.264058,0.22813,1.673438,0.684375,0.412494,0.453129,0.618744,1.070316,0.61875,1.851562m-0.8625-0.253125c-0.0063-0.471871-0.139067-0.848433-0.398438-1.129687-0.256254-0.281246-0.596879-0.421871-1.021875-0.421875-0.481253,0.000004-0.86719,0.135942-1.157813,0.407812-0.287501,0.271879-0.453126,0.654691-0.496875,1.148438l3.075001-0.0047"/>
   <path d="m38.518051,39.572317,0,0.80625c-0.243754-0.134371-0.489067-0.234371-0.735937-0.3-0.243754-0.06875-0.490629-0.103121-0.740625-0.103125-0.559378,0.000004-0.993753,0.178129-1.303125,0.534375-0.309377,0.353128-0.464064,0.850003-0.464063,1.490625-0.000001,0.640627,0.154686,1.139064,0.464063,1.495312,0.309372,0.353126,0.743747,0.529688,1.303125,0.529688,0.249996,0,0.496871-0.03281,0.740625-0.09844,0.24687-0.06875,0.492183-0.170311,0.735937-0.304687v0.796875c-0.240629,0.1125-0.490629,0.196875-0.75,0.253125-0.256254,0.05625-0.529691,0.08438-0.820312,0.08438-0.790628,0-1.418752-0.248438-1.884375-0.745313-0.465626-0.496874-0.698439-1.167186-0.698438-2.010937-0.000001-0.856247,0.234374-1.529684,0.703125-2.020313,0.471873-0.49062,1.117185-0.735932,1.935938-0.735937,0.265621,0.000005,0.524996,0.02813,0.778125,0.08438,0.25312,0.05313,0.498433,0.13438,0.735937,0.24375"/>
   <path d="m42.413366,41.981692c-0.696878,0.000002-1.17969,0.07969-1.448438,0.239062-0.268751,0.159377-0.403126,0.431252-0.403125,0.815625-0.000001,0.306251,0.1,0.550001,0.3,0.73125,0.203123,0.178126,0.478123,0.267188,0.825,0.267188,0.478122,0,0.860934-0.16875,1.148438-0.50625,0.290621-0.340624,0.435933-0.792186,0.435937-1.354688v-0.192187h-0.857812m1.720312-0.35625,0,2.995312-0.8625,0,0-0.796875c-0.196879,0.318751-0.442191,0.554688-0.735937,0.707813-0.293753,0.15-0.653128,0.225-1.078125,0.225-0.537502,0-0.965627-0.15-1.284375-0.45-0.315626-0.303125-0.473438-0.707812-0.473438-1.214063,0-0.590623,0.196875-1.035935,0.590625-1.335937,0.396874-0.299997,0.987498-0.449997,1.771875-0.45h1.209375v-0.08438c-0.000004-0.396872-0.131254-0.703121-0.39375-0.91875-0.259378-0.218746-0.625003-0.328121-1.096875-0.328125-0.300002,0.000004-0.592189,0.03594-0.876562,0.107812-0.284377,0.07188-0.557814,0.179692-0.820313,0.323438v-0.796875c0.315624-0.12187,0.621874-0.212495,0.91875-0.271875,0.296873-0.06249,0.585935-0.09374,0.867188-0.09375,0.759371,0.000005,1.326558,0.19688,1.701562,0.590625,0.374996,0.393754,0.562495,0.990628,0.5625,1.790625"/>
   <path d="m49.261802,39.525442,0,0.815625c-0.243754-0.124996-0.496879-0.218746-0.759375-0.28125-0.262503-0.0625-0.534378-0.09375-0.815625-0.09375-0.428127,0.000004-0.750002,0.06563-0.965625,0.196875-0.212501,0.131254-0.318751,0.328129-0.31875,0.590625-0.000001,0.200003,0.07656,0.357816,0.229688,0.473437,0.153123,0.112503,0.460935,0.220316,0.923437,0.323438l0.295313,0.06563c0.612496,0.131253,1.046871,0.31719,1.303125,0.557812,0.25937,0.237502,0.389058,0.570315,0.389062,0.998438-0.000004,0.487501-0.193754,0.873438-0.58125,1.157812-0.384378,0.284375-0.914065,0.426563-1.589062,0.426563-0.281252,0-0.575002-0.02813-0.88125-0.08438-0.303127-0.05313-0.623439-0.134375-0.960938-0.24375v-0.890625c0.318749,0.165626,0.632811,0.290626,0.942188,0.375,0.309373,0.08125,0.615623,0.121875,0.91875,0.121875,0.406247,0,0.718747-0.06875,0.9375-0.20625,0.218746-0.140624,0.328121-0.337499,0.328125-0.590625-0.000004-0.234374-0.07969-0.414061-0.239063-0.539063-0.156253-0.124998-0.501565-0.24531-1.035937-0.360937l-0.3-0.07031c-0.534377-0.112497-0.920314-0.284372-1.157813-0.515625-0.237501-0.234372-0.35625-0.554684-0.35625-0.960937,0-0.493746,0.174999-0.874996,0.525-1.14375,0.349999-0.268745,0.846873-0.40312,1.490625-0.403125,0.318747,0.000005,0.618747,0.02344,0.9,0.07031,0.281246,0.04688,0.540621,0.117193,0.778125,0.210938"/>
   <path d="m55.411803,41.780129,0,0.421875-3.965625,0c0.0375,0.593752,0.215623,1.046877,0.534375,1.359375,0.321872,0.309376,0.768747,0.464063,1.340625,0.464063,0.331246,0,0.651558-0.04062,0.960937-0.121875,0.312496-0.08125,0.62187-0.203124,0.928125-0.365625v0.815625c-0.30938,0.13125-0.626567,0.23125-0.951562,0.3-0.325004,0.06875-0.654691,0.103125-0.989063,0.103125-0.837502,0-1.501564-0.24375-1.992187-0.73125-0.487501-0.487499-0.731251-1.146874-0.73125-1.978125-0.000001-0.859372,0.231249-1.540621,0.69375-2.04375,0.465623-0.506245,1.092185-0.75937,1.879687-0.759375,0.706246,0.000005,1.264058,0.22813,1.673438,0.684375,0.412494,0.453129,0.618744,1.070316,0.61875,1.851562m-0.8625-0.253125c-0.0063-0.471871-0.139067-0.848433-0.398438-1.129687-0.256254-0.281246-0.596878-0.421871-1.021875-0.421875-0.481253,0.000004-0.86719,0.135942-1.157812,0.407812-0.287502,0.271879-0.453127,0.654691-0.496875,1.148438l3.075-0.0047"/>
  </g>
 </g>
 <g transform="translate(-5.9604645e-8,587.99997)">
  <g transform="matrix(1,0,0,0.98325643,-1000.5164,-141.23653)">
   <rect stroke-dasharray="none" stroke-dashoffset="0" height="14.38" width="52.833" stroke="#FFF" stroke-miterlimit="4" y="144.23" x="1009.1" stroke-width="1.16690004" fill="none"/>
   <g style="letter-spacing:0px;word-spacing:0px;" font-family="Sans" font-size="9.60000038px" line-height="125%" font-style="normal" font-weight="normal" fill="#FFF">
    <path d="m1016.6289,149.30621,0,0.81562c-0.2438-0.12499-0.4969-0.21874-0.7594-0.28125-0.2625-0.0625-0.5344-0.0937-0.8156-0.0937-0.4281,0.00001-0.75,0.0656-0.9656,0.19688-0.2125,0.13125-0.3188,0.32813-0.3188,0.59062,0,0.20001,0.077,0.35782,0.2297,0.47344,0.1531,0.1125,0.4609,0.22032,0.9234,0.32344l0.2953,0.0656c0.6125,0.13126,1.0469,0.31719,1.3032,0.55781,0.2593,0.23751,0.389,0.57032,0.389,0.99844,0,0.4875-0.1937,0.87344-0.5812,1.15781-0.3844,0.28438-0.9141,0.42657-1.5891,0.42657-0.2812,0-0.575-0.0281-0.8812-0.0844-0.3032-0.0531-0.6235-0.13437-0.961-0.24375v-0.89062c0.3188,0.16562,0.6328,0.29062,0.9422,0.375,0.3094,0.0812,0.6156,0.12187,0.9188,0.12187,0.4062,0,0.7187-0.0688,0.9375-0.20625,0.2187-0.14062,0.3281-0.3375,0.3281-0.59062,0-0.23438-0.08-0.41406-0.2391-0.53907-0.1562-0.12499-0.5015-0.24531-1.0359-0.36093l-0.3-0.0703c-0.5344-0.11249-0.9203-0.28437-1.1578-0.51562-0.2375-0.23437-0.3563-0.55468-0.3563-0.96094,0-0.49374,0.175-0.87499,0.525-1.14375,0.35-0.26874,0.8469-0.40312,1.4907-0.40312,0.3187,0,0.6187,0.0234,0.9,0.0703,0.2812,0.0469,0.5406,0.11719,0.7781,0.21094"/>
    <path d="m1022.7789,151.56089,0,0.42188-3.9656,0c0.038,0.59375,0.2156,1.04688,0.5343,1.35937,0.3219,0.30938,0.7688,0.46407,1.3407,0.46407,0.3312,0,0.6515-0.0406,0.9609-0.12188,0.3125-0.0812,0.6219-0.20312,0.9281-0.36562v0.81562c-0.3094,0.13125-0.6265,0.23125-0.9515,0.3-0.325,0.0688-0.6547,0.10313-0.9891,0.10313-0.8375,0-1.5016-0.24375-1.9922-0.73125-0.4875-0.4875-0.7312-1.14688-0.7312-1.97813,0-0.85937,0.2312-1.54062,0.6937-2.04375,0.4656-0.50624,1.0922-0.75937,1.8797-0.75937,0.7062,0,1.2641,0.22813,1.6734,0.68437,0.4125,0.45313,0.6188,1.07032,0.6188,1.85156m-0.8625-0.25312c-0.01-0.47187-0.1391-0.84843-0.3985-1.12969-0.2562-0.28124-0.5968-0.42187-1.0218-0.42187-0.4813,0-0.8672,0.13594-1.1578,0.40781-0.2875,0.27188-0.4532,0.65469-0.4969,1.14844l3.075-0.005"/>
    <path d="m1024.7101,151.78121c0,0.63437,0.1297,1.13281,0.3891,1.49531,0.2625,0.35938,0.6219,0.53906,1.0781,0.53906,0.4563,0,0.8156-0.17968,1.0781-0.53906,0.2625-0.3625,0.3938-0.86094,0.3938-1.49531s-0.1313-1.13125-0.3938-1.49063c-0.2625-0.36249-0.6218-0.54374-1.0781-0.54375-0.4562,0.00001-0.8156,0.18126-1.0781,0.54375-0.2594,0.35938-0.3891,0.85626-0.3891,1.49063m2.9391,1.83281c-0.1813,0.3125-0.4109,0.54531-0.6891,0.69844-0.275,0.15-0.6062,0.225-0.9937,0.225-0.6344,0-1.1516-0.25313-1.5516-0.75938-0.3969-0.50625-0.5953-1.17187-0.5953-1.99687s0.1984-1.49062,0.5953-1.99688c0.4-0.50624,0.9172-0.75937,1.5516-0.75937,0.3875,0,0.7187,0.0766,0.9937,0.22968,0.2782,0.15001,0.5078,0.38126,0.6891,0.69375v-0.79687h0.8625v7.24687h-0.8625v-2.78437"/>
    <path d="m1030.1992,152.32964,0-3.17812,0.8625,0,0,3.14531c0,0.49688,0.097,0.87032,0.2906,1.12031,0.1938,0.24688,0.4844,0.37032,0.8719,0.37032,0.4656,0,0.8328-0.14844,1.1016-0.44532,0.2718-0.29687,0.4078-0.70156,0.4078-1.21406v-2.97656h0.8625v5.25h-0.8625v-0.80625c-0.2094,0.31875-0.4532,0.55625-0.7313,0.7125-0.275,0.15312-0.5953,0.22969-0.9609,0.22969-0.6031,0-1.061-0.1875-1.3735-0.5625s-0.4687-0.92344-0.4687-1.64532"/>
    <path d="m1040.8726,151.56089,0,0.42188-3.9656,0c0.038,0.59375,0.2156,1.04688,0.5344,1.35937,0.3219,0.30938,0.7687,0.46407,1.3406,0.46407,0.3313,0,0.6516-0.0406,0.9609-0.12188,0.3125-0.0812,0.6219-0.20312,0.9282-0.36562v0.81562c-0.3094,0.13125-0.6266,0.23125-0.9516,0.3-0.325,0.0688-0.6547,0.10313-0.9891,0.10313-0.8375,0-1.5015-0.24375-1.9921-0.73125-0.4875-0.4875-0.7313-1.14688-0.7313-1.97813,0-0.85937,0.2313-1.54062,0.6938-2.04375,0.4656-0.50624,1.0921-0.75937,1.8796-0.75937,0.7063,0,1.2641,0.22813,1.6735,0.68437,0.4125,0.45313,0.6187,1.07032,0.6187,1.85156m-0.8625-0.25312c-0.01-0.47187-0.139-0.84843-0.3984-1.12969-0.2563-0.28124-0.5969-0.42187-1.0219-0.42187-0.4812,0-0.8672,0.13594-1.1578,0.40781-0.2875,0.27188-0.4531,0.65469-0.4969,1.14844l3.075-0.005"/>
    <path d="m1046.6523,151.23277,0,3.16875-0.8625,0,0-3.14063c0-0.49687-0.097-0.86874-0.2906-1.11562-0.1938-0.24687-0.4844-0.37031-0.8719-0.37031-0.4656,0-0.8328,0.14844-1.1015,0.44531-0.2688,0.29688-0.4032,0.70157-0.4032,1.21406v2.96719h-0.8672v-5.25h0.8672v0.81562c0.2063-0.31562,0.4485-0.55155,0.7266-0.70781,0.2812-0.15624,0.6047-0.23437,0.9703-0.23437,0.6031,0,1.0594,0.1875,1.3688,0.5625,0.3093,0.37188,0.464,0.92031,0.464,1.64531"/>
    <path d="m1052.1601,149.35308,0,0.80625c-0.2437-0.13437-0.489-0.23437-0.7359-0.3-0.2438-0.0687-0.4906-0.10312-0.7406-0.10312-0.5594,0-0.9938,0.17813-1.3032,0.53437-0.3093,0.35313-0.464,0.85001-0.464,1.49063s0.1547,1.13906,0.464,1.49531c0.3094,0.35313,0.7438,0.52969,1.3032,0.52969,0.25,0,0.4968-0.0328,0.7406-0.0984,0.2469-0.0688,0.4922-0.17031,0.7359-0.30469v0.79688c-0.2406,0.1125-0.4906,0.19687-0.75,0.25312-0.2562,0.0563-0.5297,0.0844-0.8203,0.0844-0.7906,0-1.4187-0.24844-1.8844-0.74532-0.4656-0.49687-0.6984-1.16718-0.6984-2.01093,0-0.85625,0.2344-1.52969,0.7031-2.02032,0.4719-0.49062,1.1172-0.73593,1.936-0.73593,0.2656,0,0.525,0.0281,0.7781,0.0844,0.2531,0.0531,0.4984,0.13438,0.7359,0.24375"/>
    <path d="m1058.1601,151.56089,0,0.42188-3.9656,0c0.037,0.59375,0.2156,1.04688,0.5344,1.35937,0.3219,0.30938,0.7687,0.46407,1.3406,0.46407,0.3313,0,0.6516-0.0406,0.9609-0.12188,0.3125-0.0812,0.6219-0.20312,0.9282-0.36562v0.81562c-0.3094,0.13125-0.6266,0.23125-0.9516,0.3-0.325,0.0688-0.6547,0.10313-0.9891,0.10313-0.8375,0-1.5015-0.24375-1.9921-0.73125-0.4875-0.4875-0.7313-1.14688-0.7313-1.97813,0-0.85937,0.2313-1.54062,0.6938-2.04375,0.4656-0.50624,1.0921-0.75937,1.8796-0.75937,0.7063,0,1.2641,0.22813,1.6735,0.68437,0.4125,0.45313,0.6187,1.07032,0.6187,1.85156m-0.8625-0.25312c-0.01-0.47187-0.139-0.84843-0.3984-1.12969-0.2563-0.28124-0.5969-0.42187-1.0219-0.42187-0.4812,0-0.8672,0.13594-1.1578,0.40781-0.2875,0.27188-0.4531,0.65469-0.4969,1.14844l3.075-0.005"/>
   </g>
   <path stroke-linejoin="miter" d="m1035.5,158.74,0,13.066" stroke-dashoffset="0" stroke="#FFF" stroke-linecap="butt" stroke-miterlimit="4" stroke-dasharray="1.8593572, 0.61978573" stroke-width="0.61978579" fill="none"/>
  </g>
 </g>
 <g transform="translate(-1000.8789,498.87737)" stroke="#FFF" stroke-dasharray="none" stroke-miterlimit="4" fill="none">
  <path d="m154,140.74c0,1.3117-1.0633,2.375-2.375,2.375s-2.375-1.0633-2.375-2.375,1.0633-2.375,2.375-2.375,2.375,1.0633,2.375,2.375z" transform="matrix(1.2,0,0,1.2,853.75082,12.087996)" stroke-dashoffset="0" stroke-width="0.5"/>
  <path stroke-linejoin="miter" d="m1035.9,184.07,0,9.081" stroke-linecap="butt" stroke-width="0.50923884"/>
  <path stroke-linejoin="miter" d="m1036,192.82-3,3.3z" stroke-linecap="butt" stroke-width="0.60000002"/>
  <path stroke-linejoin="miter" d="m1035.7,192.82,3.3,3" stroke-linecap="butt" stroke-width="0.60000002"/>
  <path stroke-linejoin="miter" d="m1030.5,187.72,10.758,0" stroke-linecap="butt" stroke-width="0.5542717"/>
 </g>
 <g transform="translate(-5.9604645e-8,587.99997)">
  <g fill="#FFF" transform="matrix(1.2,0,0,1.2,-147.07448,-71.28261)">
   <g style="letter-spacing:0px;word-spacing:0px;" font-family="Sans" font-size="8px" line-height="125%" font-style="normal" font-weight="normal" fill="#FFF">
    <path d="m146.95505,164.51408,0,2.64063-0.71875,0,0-2.61719c-0.00001-0.41406-0.0807-0.72395-0.24219-0.92969-0.16146-0.20572-0.40365-0.30859-0.72656-0.30859-0.38803,0-0.69401,0.1237-0.91797,0.37109-0.22396,0.2474-0.33594,0.58464-0.33594,1.01172v2.47266h-0.72265v-4.375h0.72265v0.67969c0.17187-0.26302,0.3737-0.45963,0.60547-0.58985,0.23437-0.1302,0.5039-0.19531,0.80859-0.19531,0.5026,0,0.88281,0.15625,1.14063,0.46875,0.25781,0.3099,0.38671,0.76693,0.38672,1.37109"/>
    <path d="m150.09177,163.28362c-0.38542,0-0.69011,0.15104-0.91407,0.45312-0.22396,0.29948-0.33593,0.71094-0.33593,1.23438,0,0.52343,0.11067,0.93619,0.33203,1.23828,0.22395,0.29948,0.52994,0.44922,0.91797,0.44922,0.38281,0,0.68619-0.15105,0.91015-0.45313s0.33594-0.71354,0.33594-1.23437c0-0.51823-0.11198-0.92839-0.33594-1.23047-0.22396-0.30469-0.52734-0.45703-0.91015-0.45703m0-0.60938c0.62499,0,1.11588,0.20313,1.47265,0.60938s0.53515,0.96875,0.53516,1.6875c-0.00001,0.71614-0.17839,1.27864-0.53516,1.6875-0.35677,0.40625-0.84766,0.60937-1.47265,0.60937-0.62761,0-1.1198-0.20312-1.47657-0.60937-0.35416-0.40886-0.53125-0.97136-0.53125-1.6875,0-0.71875,0.17709-1.28125,0.53125-1.6875,0.35677-0.40625,0.84896-0.60938,1.47657-0.60938"/>
    <path d="m153.99802,161.53752,0,1.24219,1.48047,0,0,0.55859-1.48047,0,0,2.375c-0.00001,0.35677,0.0482,0.58594,0.14453,0.6875,0.099,0.10157,0.29817,0.15235,0.59765,0.15235h0.73829v0.60156h-0.73829c-0.55469,0-0.9375-0.10287-1.14843-0.30859-0.21094-0.20834-0.31641-0.58594-0.31641-1.13282v-2.375h-0.52734v-0.55859h0.52734v-1.24219h0.72266"/>
    <path d="m160.16989,164.78752,0,0.35156-3.30469,0c0.0312,0.4948,0.17969,0.8724,0.44532,1.13282,0.26822,0.25781,0.64062,0.38672,1.11718,0.38672,0.27604,0,0.54297-0.0339,0.80079-0.10157,0.26041-0.0677,0.51822-0.16927,0.77343-0.30468v0.67968c-0.25781,0.10938-0.52214,0.19271-0.79297,0.25-0.27083,0.0573-0.54557,0.0859-0.82421,0.0859-0.69792,0-1.25131-0.20312-1.66016-0.60937-0.40625-0.40625-0.60938-0.95573-0.60938-1.64844,0-0.71615,0.19271-1.28385,0.57813-1.70313,0.38802-0.42187,0.91015-0.63281,1.56641-0.63281,0.58853,0,1.05338,0.19011,1.39453,0.57031,0.34374,0.37761,0.51562,0.89193,0.51562,1.54297m-0.71875-0.21094c-0.005-0.39322-0.11589-0.70702-0.33203-0.9414-0.21354-0.23437-0.4974-0.35156-0.85156-0.35156-0.40105,0-0.72266,0.11328-0.96485,0.33984-0.23958,0.22656-0.3776,0.54557-0.41406,0.95703l2.5625-0.004"/>
   </g>
  </g>
  <g fill="none" stroke="#FFF" transform="matrix(1.2,0,0,1.2,-147.46542,-83.792594)">
   <path d="m129.97,168.94,0,11.969,44.031,0,0-7.3438-4.7188,0,0-4.625-39.312,0z" stroke-dashoffset="0" stroke-dasharray="none" stroke-miterlimit="4" stroke-width="0.97238827"/>
   <path stroke-linejoin="miter" d="m169.32,168.76,4.8053,4.7238" stroke-linecap="butt" stroke-width="1px"/>
  </g>
 </g>
 <g transform="translate(-1000.3987,535.05742)">
  <rect stroke-dasharray="none" stroke-dashoffset="0" transform="matrix(0.70710678,-0.70710678,0.70710678,0.70710678,0,0)" height="11.355" width="11.355" stroke="#FFF" stroke-miterlimit="4" y="892.59003" x="560.33002" stroke-width="0.64543003" fill="none"/>
 </g>
 <g transform="translate(-999.77271,738.87504)">
  <path d="m152.14,202.73c0,2.339-1.8961,4.2352-4.2352,4.2352-2.339,0-4.2352-1.8961-4.2352-4.2352,0-2.339,1.8961-4.2352,4.2352-4.2352,2.339,0,4.2352,1.8961,4.2352,4.2352z" stroke-dashoffset="0" transform="matrix(0.93642326,0,0,0.93642326,896.27126,65.285524)" stroke="#FFF" stroke-miterlimit="4" stroke-dasharray="none" stroke-width="0.5" fill="#FFF"/>
 </g>
 <g transform="translate(-999.77271,753.58329)" stroke-dashoffset="0" stroke="#FFF" stroke-dasharray="none" stroke-miterlimit="4" stroke-width="0.5">
  <path d="m152.14,202.73c0,2.339-1.8961,4.2352-4.2352,4.2352-2.339,0-4.2352-1.8961-4.2352-4.2352,0-2.339,1.8961-4.2352,4.2352-4.2352,2.339,0,4.2352,1.8961,4.2352,4.2352z" transform="matrix(0.93642326,0,0,0.93642326,896.27126,78.577382)" fill="none"/>
  <path d="m152.14,202.73c0,2.339-1.8961,4.2352-4.2352,4.2352-2.339,0-4.2352-1.8961-4.2352-4.2352,0-2.339,1.8961-4.2352,4.2352-4.2352,2.339,0,4.2352,1.8961,4.2352,4.2352z" transform="matrix(0.53509901,0,0,0.53509901,955.62893,159.93613)" fill="#FFF"/>
 </g>
 <g transform="translate(-5.9604645e-8,587.99997)">
  <rect stroke-dasharray="none" stroke-dashoffset="0" ry="3.5184" height="14.38" width="52.833" stroke="#FFF" stroke-miterlimit="4" y="286.81122" x="8.5836" stroke-width="1.16690004" fill="none"/>
  <g style="letter-spacing:0px;word-spacing:0px;" font-family="Sans" font-size="9.60000038px" line-height="125%" font-style="normal" font-weight="normal" fill="#FFF">
   <path d="m20.469805,294.00831c-0.696877,0-1.179689,0.0797-1.448437,0.23906-0.268752,0.15938-0.403127,0.43125-0.403125,0.81562-0.000002,0.30626,0.1,0.55001,0.3,0.73125,0.203123,0.17813,0.478123,0.26719,0.825,0.26719,0.478122,0,0.860934-0.16875,1.148437-0.50625,0.290621-0.34062,0.435934-0.79218,0.435938-1.35469v-0.19218h-0.857813m1.720313-0.35625,0,2.99531-0.8625,0,0-0.79688c-0.196879,0.31875-0.442191,0.55469-0.735938,0.70782-0.293753,0.15-0.653128,0.225-1.078125,0.225-0.537502,0-0.965626-0.15-1.284375-0.45-0.315626-0.30313-0.473438-0.70781-0.473437-1.21407-0.000001-0.59062,0.196874-1.03593,0.590625-1.33593,0.396873-0.3,0.987498-0.45,1.771875-0.45h1.209375v-0.0844c-0.000004-0.39687-0.131254-0.70312-0.39375-0.91875-0.259379-0.21874-0.625003-0.32812-1.096875-0.32812-0.300003,0-0.59219,0.0359-0.876563,0.10781-0.284376,0.0719-0.557814,0.17969-0.820312,0.32344v-0.79688c0.315623-0.12187,0.621873-0.21249,0.91875-0.27187,0.296873-0.0625,0.585935-0.0937,0.867187-0.0937,0.759372,0,1.326559,0.19688,1.701563,0.59062,0.374995,0.39376,0.562495,0.99063,0.5625,1.79063"/>
   <path d="m27.749493,291.59893,0,0.80625c-0.243754-0.13437-0.489067-0.23437-0.735937-0.3-0.243754-0.0687-0.490629-0.10312-0.740625-0.10312-0.559378,0-0.993753,0.17813-1.303125,0.53437-0.309377,0.35313-0.464064,0.85001-0.464063,1.49063-0.000001,0.64062,0.154686,1.13906,0.464063,1.49531,0.309372,0.35313,0.743747,0.52969,1.303125,0.52969,0.249996,0,0.496871-0.0328,0.740625-0.0984,0.24687-0.0688,0.492183-0.17031,0.735937-0.30469v0.79688c-0.240629,0.1125-0.490629,0.19687-0.75,0.25312-0.256254,0.0562-0.529691,0.0844-0.820312,0.0844-0.790628,0-1.418752-0.24844-1.884376-0.74532-0.465625-0.49687-0.698438-1.16718-0.698437-2.01093-0.000001-0.85625,0.234374-1.52969,0.703125-2.02032,0.471873-0.49062,1.117185-0.73593,1.935938-0.73593,0.265621,0,0.524996,0.0281,0.778125,0.0844,0.25312,0.0531,0.498433,0.13438,0.735937,0.24375"/>
   <path d="m30.111994,289.90674,0,1.49063,1.776562,0,0,0.67031-1.776562,0,0,2.85c-0.000002,0.42813,0.05781,0.70313,0.173437,0.825,0.118748,0.12188,0.357811,0.18282,0.717188,0.18281h0.885937v0.72188h-0.885937c-0.665627,0-1.125002-0.12344-1.378125-0.37031-0.253126-0.25-0.379689-0.70313-0.379688-1.35938v-2.85h-0.632812v-0.67031h0.632812v-1.49063h0.867188"/>
   <path d="m33.027618,291.39737,0.8625,0,0,5.25-0.8625,0,0-5.25m0-2.04375,0.8625,0,0,1.09219-0.8625,0,0-1.09219"/>
   <path d="m35.071368,291.39737,0.914063,0,1.640625,4.40625,1.640625-4.40625,0.914063,0-1.96875,5.25-1.171876,0-1.96875-5.25"/>
   <path d="m41.371368,291.39737,0.8625,0,0,5.25-0.8625,0,0-5.25m0-2.04375,0.8625,0,0,1.09219-0.8625,0,0-1.09219"/>
   <path d="m44.886993,289.90674,0,1.49063,1.776563,0,0,0.67031-1.776563,0,0,2.85c-0.000001,0.42813,0.05781,0.70313,0.173438,0.825,0.118748,0.12188,0.35781,0.18282,0.717188,0.18281h0.885937v0.72188h-0.885937c-0.665627,0-1.125002-0.12344-1.378126-0.37031-0.253126-0.25-0.379688-0.70313-0.379687-1.35938v-2.85h-0.632813v-0.67031h0.632813v-1.49063h0.867187"/>
   <path d="m49.986995,297.13487c-0.243753,0.625-0.481253,1.03281-0.7125,1.22344-0.231253,0.19062-0.540627,0.28593-0.928125,0.28593h-0.689063v-0.72187h0.50625c0.237499,0,0.421873-0.0562,0.553125-0.16875,0.131248-0.1125,0.276561-0.37813,0.435938-0.79688l0.154687-0.39375-2.123437-5.16562h0.914062l1.640625,4.10625,1.640625-4.10625h0.914063l-2.30625,5.7375"/>
  </g>
 </g>
 <g transform="translate(-5.9604645e-8,587.99997)">
  <rect stroke-dasharray="none" stroke-dashoffset="0" height="14.38" width="52.833" stroke="#FFF" stroke-miterlimit="4" y="318.40463" x="8.5918245" stroke-width="1.16690004" fill="none"/>
  <g style="letter-spacing:0px;word-spacing:0px;" font-family="Sans" font-size="9.60000038px" line-height="125%" font-style="normal" font-weight="normal" fill="#FFF">
   <path d="m16.314591,327.78135,0,2.78437-0.867188,0,0-7.24687,0.867188,0,0,0.79687c0.181248-0.31249,0.409373-0.54374,0.684375-0.69375,0.278122-0.15312,0.609372-0.22968,0.99375-0.22969,0.637496,0.00001,1.154683,0.25314,1.551562,0.75938,0.399995,0.50625,0.599995,1.17188,0.6,1.99688-0.000005,0.825-0.200005,1.49062-0.6,1.99687-0.396879,0.50625-0.914066,0.75938-1.551562,0.75938-0.384378,0-0.715628-0.075-0.99375-0.225-0.275002-0.15313-0.503127-0.38594-0.684375-0.69844m2.934375-1.83281c-0.000005-0.63438-0.131255-1.13125-0.39375-1.49063-0.259379-0.3625-0.617191-0.54375-1.073438-0.54375-0.456252,0-0.815627,0.18125-1.078125,0.54375-0.259377,0.35938-0.389064,0.85625-0.389062,1.49063-0.000002,0.63437,0.129685,1.13281,0.389062,1.49531,0.262498,0.35937,0.621873,0.53906,1.078125,0.53906,0.456247,0,0.814059-0.17969,1.073438-0.53906,0.262495-0.3625,0.393745-0.86094,0.39375-1.49531"/>
   <path d="m23.959904,325.92979c-0.696878,0-1.17969,0.0797-1.448438,0.23906-0.268751,0.15937-0.403126,0.43125-0.403125,0.81562-0.000001,0.30625,0.1,0.55,0.3,0.73125,0.203123,0.17813,0.478123,0.26719,0.825,0.26719,0.478122,0,0.860934-0.16875,1.148438-0.50625,0.290621-0.34062,0.435933-0.79219,0.435937-1.35469v-0.19218h-0.857812m1.720312-0.35625,0,2.99531-0.8625,0,0-0.79688c-0.196879,0.31875-0.442191,0.55469-0.735937,0.70782-0.293753,0.15-0.653128,0.225-1.078125,0.225-0.537502,0-0.965627-0.15-1.284375-0.45-0.315626-0.30313-0.473438-0.70782-0.473438-1.21407,0-0.59062,0.196874-1.03593,0.590625-1.33593,0.396874-0.3,0.987498-0.45,1.771875-0.45h1.209375v-0.0844c-0.000004-0.39687-0.131254-0.70312-0.39375-0.91875-0.259378-0.21875-0.625003-0.32812-1.096875-0.32813-0.300002,0.00001-0.592189,0.0359-0.876562,0.10782-0.284377,0.0719-0.557814,0.17969-0.820313,0.32343v-0.79687c0.315624-0.12187,0.621874-0.21249,0.91875-0.27188,0.296873-0.0625,0.585935-0.0937,0.867188-0.0937,0.759371,0.00001,1.326558,0.19689,1.701562,0.59063,0.374995,0.39375,0.562495,0.99063,0.5625,1.79063"/>
   <path d="m31.239592,323.52041,0,0.80625c-0.243755-0.13437-0.489067-0.23437-0.735938-0.3-0.243754-0.0687-0.490628-0.10312-0.740625-0.10313-0.559378,0.00001-0.993752,0.17813-1.303125,0.53438-0.309377,0.35313-0.464064,0.85-0.464063,1.49063-0.000001,0.64062,0.154686,1.13906,0.464063,1.49531,0.309373,0.35312,0.743747,0.52969,1.303125,0.52969,0.249997,0,0.496871-0.0328,0.740625-0.0984,0.246871-0.0687,0.492183-0.17031,0.735938-0.30469v0.79688c-0.24063,0.1125-0.49063,0.19687-0.75,0.25312-0.256254,0.0563-0.529691,0.0844-0.820313,0.0844-0.790627,0-1.418752-0.24844-1.884375-0.74532-0.465626-0.49687-0.698438-1.16718-0.698438-2.01093,0-0.85625,0.234375-1.52969,0.703125-2.02032,0.471874-0.49062,1.117186-0.73593,1.935938-0.73594,0.265622,0.00001,0.524996,0.0281,0.778125,0.0844,0.253121,0.0531,0.498433,0.13438,0.735938,0.24375"/>
   <path d="m32.716154,321.2751,0.867188,0,0,4.30781,2.573437-2.26406,1.101563,0-2.784375,2.45625,2.901563,2.79375-1.125001,0-2.667187-2.56406,0,2.56406-0.867188,0,0-7.29375"/>
   <path d="m40.534904,325.92979c-0.696878,0-1.17969,0.0797-1.448438,0.23906-0.268751,0.15937-0.403126,0.43125-0.403125,0.81562-0.000001,0.30625,0.1,0.55,0.3,0.73125,0.203124,0.17813,0.478123,0.26719,0.825001,0.26719,0.478121,0,0.860934-0.16875,1.148437-0.50625,0.290621-0.34062,0.435933-0.79219,0.435938-1.35469v-0.19218h-0.857813m1.720313-0.35625,0,2.99531-0.8625,0,0-0.79688c-0.196879,0.31875-0.442192,0.55469-0.735938,0.70782-0.293753,0.15-0.653128,0.225-1.078125,0.225-0.537502,0-0.965626-0.15-1.284375-0.45-0.315626-0.30313-0.473438-0.70782-0.473438-1.21407,0-0.59062,0.196875-1.03593,0.590625-1.33593,0.396874-0.3,0.987498-0.45,1.771876-0.45h1.209375v-0.0844c-0.000005-0.39687-0.131254-0.70312-0.39375-0.91875-0.259379-0.21875-0.625004-0.32812-1.096875-0.32813-0.300003,0.00001-0.59219,0.0359-0.876563,0.10782-0.284377,0.0719-0.557814,0.17969-0.820313,0.32343v-0.79687c0.315624-0.12187,0.621874-0.21249,0.91875-0.27188,0.296873-0.0625,0.585936-0.0937,0.867188-0.0937,0.759372,0.00001,1.326558,0.19689,1.701563,0.59063,0.374995,0.39375,0.562495,0.99063,0.5625,1.79063"/>
   <path d="m47.491155,325.88291c-0.000005-0.625-0.129692-1.10937-0.389063-1.45313-0.256253-0.34374-0.617191-0.51562-1.082812-0.51562-0.462503,0-0.82344,0.17188-1.082813,0.51562-0.256251,0.34376-0.384376,0.82813-0.384375,1.45313-0.000001,0.62188,0.128124,1.10469,0.384375,1.44844,0.259373,0.34375,0.62031,0.51562,1.082813,0.51562,0.465621,0,0.826559-0.17187,1.082812-0.51562,0.259371-0.34375,0.389058-0.82656,0.389063-1.44844m0.8625,2.03438c-0.000005,0.89374-0.198443,1.55781-0.595313,1.99218-0.396879,0.4375-1.004691,0.65625-1.823437,0.65625-0.303128,0-0.589065-0.0234-0.857813-0.0703-0.268751-0.0437-0.529689-0.1125-0.782812-0.20625v-0.83906c0.253123,0.1375,0.503123,0.23906,0.75,0.30469,0.246873,0.0656,0.498435,0.0984,0.754687,0.0984,0.565622,0,0.989059-0.14844,1.270313-0.44531,0.281246-0.29375,0.42187-0.73906,0.421875-1.33594v-0.42656c-0.178129,0.30938-0.406254,0.54063-0.684375,0.69375-0.278129,0.15313-0.610941,0.22969-0.998438,0.22969-0.643752,0-1.162501-0.24531-1.55625-0.73594-0.393751-0.49062-0.590625-1.14062-0.590625-1.95,0-0.8125,0.196874-1.46406,0.590625-1.95469,0.393749-0.49062,0.912498-0.73593,1.55625-0.73594,0.387497,0.00001,0.720309,0.0766,0.998438,0.22969,0.278121,0.15313,0.506246,0.38438,0.684375,0.69375v-0.79687h0.8625v4.59844"/>
   <path d="m54.620842,325.72822,0,0.42188-3.965625,0c0.0375,0.59375,0.215624,1.04687,0.534375,1.35937,0.321873,0.30938,0.768748,0.46407,1.340625,0.46407,0.331247,0,0.651559-0.0406,0.960938-0.12188,0.312495-0.0812,0.62187-0.20312,0.928125-0.36562v0.81562c-0.30938,0.13125-0.626567,0.23125-0.951563,0.3-0.325004,0.0688-0.654691,0.10313-0.989062,0.10313-0.837503,0-1.501565-0.24375-1.992188-0.73125-0.487501-0.4875-0.73125-1.14688-0.73125-1.97813,0-0.85937,0.231249-1.54062,0.69375-2.04375,0.465624-0.50624,1.092185-0.75937,1.879688-0.75938,0.706246,0.00001,1.264058,0.22814,1.673437,0.68438,0.412495,0.45313,0.618745,1.07032,0.61875,1.85156m-0.8625-0.25312c-0.0063-0.47187-0.139067-0.84844-0.398437-1.12969-0.256254-0.28125-0.596879-0.42187-1.021875-0.42188-0.481253,0.00001-0.86719,0.13595-1.157813,0.40782-0.287501,0.27188-0.453126,0.65469-0.496875,1.14844l3.075-0.005"/>
  </g>
  <rect stroke-dasharray="none" stroke-dashoffset="0" height="7.2814002" width="14.405" stroke="#FFF" stroke-miterlimit="4" y="311.13461" x="8.4917879" stroke-width="1" fill="none"/>
 </g>
 <g transform="translate(-5.9604645e-8,587.99997)">
  <rect stroke-dasharray="none" stroke-dashoffset="0" ry="5.9914999" height="24.488001" width="68.269135" stroke="#FFF" stroke-miterlimit="4" y="141.75662" x="0.86545855" stroke-width="1.73087788" fill="none"/>
  <g style="letter-spacing:0px;word-spacing:0px;" font-weight="normal" transform="scale(0.99952525,1.000475)" font-size="9.59544277px" font-style="normal" font-family="Sans" line-height="125%" fill="#FFF">
   <path d="m9.6515649,151.75866,0,0.80587c-0.2436387-0.13431-0.4888345-0.23426-0.7355881-0.29986-0.243638-0.0687-0.4903956-0.10307-0.7402734-0.10307-0.5591121,0-0.9932805,0.17804-1.3025064,0.53412-0.3092298,0.35296-0.4638437,0.8496-0.4638422,1.48991-0.0000015,0.64033,0.1546124,1.13853,0.4638422,1.49461,0.3092259,0.35295,0.7433943,0.52943,1.3025064,0.52943,0.2498778,0,0.4966354-0.0328,0.7402734-0.0984,0.2467536-0.0687,0.4919494-0.17023,0.7355881-0.30454v0.7965c-0.2405152,0.11244-0.4903963,0.19678-0.749644,0.253-0.256132,0.0562-0.5294394,0.0843-0.819923,0.0843-0.790252,0-1.4180782-0.24832-1.8834805-0.74496-0.4654047-0.49664-0.6981065-1.16663-0.6981059-2.00999-6E-7-0.85584,0.2342629-1.52895,0.7027912-2.01935,0.4716493-0.49039,1.1166548-0.73558,1.9350185-0.73559,0.2654954,0.00001,0.524747,0.0281,0.7777556,0.0843,0.2530006,0.0531,0.4981964,0.13431,0.7355881,0.24363"/>
   <path d="m15.648717,153.96543,0,0.42167-3.963743,0c0.03748,0.59347,0.215521,1.04638,0.534121,1.35873,0.32172,0.30923,0.768383,0.46384,1.339989,0.46384,0.331089,0,0.651249-0.0406,0.960481-0.12181,0.312347-0.0812,0.621575-0.20303,0.927685-0.36546v0.81524c-0.309233,0.13119-0.62627,0.23114-0.951111,0.29986-0.32485,0.0687-0.65438,0.10308-0.988593,0.10308-0.837105,0-1.500852-0.24364-1.991242-0.73091-0.487269-0.48726-0.730903-1.14633-0.730903-1.97718,0-0.85897,0.23114-1.53989,0.693421-2.04278,0.465402-0.50601,1.091667-0.75901,1.878795-0.75902,0.705911,0.00001,1.263458,0.22802,1.672643,0.68405,0.412299,0.45292,0.618451,1.06981,0.618457,1.85069m-0.862091-0.25301c-0.0063-0.47165-0.139001-0.84803-0.398248-1.12915-0.256133-0.28111-0.596596-0.42167-1.02139-0.42167-0.481024,0-0.866778,0.13587-1.157263,0.40761-0.287365,0.27175-0.452912,0.65438-0.496639,1.1479l3.07354-0.005"/>
   <path d="m21.425661,153.63746,0,3.16724-0.862091,0,0-3.13913c-0.000004-0.49664-0.09683-0.86833-0.290487-1.1151-0.193662-0.24675-0.484149-0.37013-0.871461-0.37013-0.465407,0-0.83242,0.14837-1.10104,0.4451-0.268624,0.29674-0.402935,0.70123-0.402933,1.21348v2.96578h-0.866776v-5.24751h0.866776v0.81524c0.20615-0.31547,0.448222-0.55129,0.726217-0.70747,0.281114-0.15617,0.604398-0.23426,0.969852-0.23427,0.602835,0.00001,1.058868,0.18742,1.368101,0.56224,0.309223,0.3717,0.463837,0.91988,0.463842,1.64453"/>
   <path d="m24.007247,150.06728,0,1.48991,1.775719,0,0,0.67-1.775719,0,0,2.84865c-0.000002,0.42792,0.05778,0.70279,0.173355,0.8246,0.118691,0.12182,0.35764,0.18273,0.716847,0.18273h0.885517v0.72153h-0.885517c-0.665311,0-1.124468-0.12338-1.377471-0.37013-0.253006-0.24988-0.379508-0.70279-0.379507-1.35873v-2.84865h-0.632512v-0.67h0.632512v-1.48991h0.866776"/>
   <path d="m29.96223,152.36306c-0.09683-0.0562-0.203032-0.0968-0.318599-0.12181-0.11245-0.0281-0.23739-0.0422-0.374822-0.0422-0.487271,0-0.862093,0.1593-1.124466,0.4779-0.259253,0.31547-0.388879,0.76995-0.388877,1.36341v2.76431h-0.866776v-5.24751h0.866776v0.81524c0.181162-0.31859,0.416987-0.55442,0.707476-0.70747,0.290484-0.15617,0.643441-0.23426,1.058872-0.23427,0.05934,0.00001,0.124937,0.005,0.196782,0.0141,0.07184,0.006,0.151486,0.0172,0.238949,0.0328l0.0047,0.88551"/>
   <path d="m33.260664,154.16689c-0.696547,0.00001-1.17913,0.0797-1.44775,0.23895-0.268624,0.1593-0.402935,0.43105-0.402934,0.81524-0.000001,0.30611,0.09995,0.54974,0.299858,0.7309,0.203027,0.17804,0.477896,0.26706,0.824608,0.26706,0.477895,0,0.860526-0.16867,1.147893-0.50601,0.290483-0.34046,0.435726-0.79181,0.43573-1.35404v-0.1921h-0.857405m1.719496-0.35608,0,2.99389-0.862091,0,0-0.79649c-0.196785,0.3186-0.441981,0.55442-0.735588,0.70747-0.293614,0.14993-0.652818,0.2249-1.077613,0.2249-0.537247,0-0.965168-0.14993-1.283765-0.44979-0.315476-0.30298-0.473214-0.70748-0.473213-1.21349-0.000001-0.59034,0.196781-1.03544,0.590344-1.3353,0.396685-0.29985,0.98703-0.44978,1.771034-0.44979h1.208801v-0.0843c-0.000004-0.39668-0.131192-0.70279-0.393563-0.91832-0.259255-0.21864-0.624706-0.32796-1.096354-0.32796-0.29986,0-0.591909,0.0359-0.876147,0.10776-0.284241,0.0718-0.557548,0.1796-0.819923,0.32328v-0.7965c0.315474-0.12181,0.621579-0.21239,0.918314-0.27174,0.296732-0.0625,0.585657-0.0937,0.866776-0.0937,0.759011,0.00001,1.325929,0.19679,1.700755,0.59035,0.374817,0.39356,0.562228,0.99016,0.562233,1.78977"/>
   <path d="m36.760564,149.51442,0.86209,0,0,7.29028-0.86209,0,0-7.29028"/>
   <path d="m43.329318,150.06728,0,1.48991,1.775719,0,0,0.67-1.775719,0,0,2.84865c-0.000002,0.42792,0.05778,0.70279,0.173355,0.8246,0.118691,0.12182,0.35764,0.18273,0.716847,0.18273h0.885517v0.72153h-0.885517c-0.665311,0-1.124468-0.12338-1.377471-0.37013-0.253006-0.24988-0.379508-0.70279-0.379507-1.35873v-2.84865h-0.632512v-0.67h0.632512v-1.48991h0.866776"/>
   <path d="m48.276971,152.1616c-0.462283,0-0.827734,0.18116-1.096355,0.54349-0.268624,0.35921-0.402935,0.85272-0.402933,1.48054-0.000002,0.62783,0.132748,1.12291,0.398248,1.48524,0.268621,0.3592,0.635633,0.5388,1.10104,0.5388,0.459153,0,0.823043-0.18116,1.091669-0.54349,0.268618-0.36233,0.402929-0.85584,0.402933-1.48055-0.000004-0.62157-0.134315-1.11353-0.402933-1.47586-0.268626-0.36544-0.632516-0.54817-1.091669-0.54817m0-0.73091c0.74964,0.00001,1.338422,0.24364,1.766348,0.73091,0.427917,0.48727,0.641878,1.16195,0.641883,2.02403-0.000005,0.85897-0.213966,1.53365-0.641883,2.02404-0.427926,0.48727-1.016708,0.73091-1.766348,0.73091-0.75277,0-1.343114-0.24364-1.771034-0.73091-0.424799-0.49039-0.637198-1.16507-0.637197-2.02404-0.000001-0.86208,0.212398-1.53676,0.637197-2.02403,0.42792-0.48727,1.018264-0.7309,1.771034-0.73091"/>
   <path d="m52.943503,156.01758,0,2.78305-0.866775,0,0-7.24344,0.866775,0,0,0.7965c0.181162-0.31235,0.409179-0.54349,0.684051-0.69342,0.27799-0.15305,0.609082-0.22957,0.993278-0.22958,0.637193,0.00001,1.154135,0.25301,1.550826,0.75902,0.399805,0.50601,0.599709,1.17132,0.599715,1.99592-0.000006,0.82461-0.19991,1.48992-0.599715,1.99593-0.396691,0.50601-0.913633,0.75902-1.550826,0.75902-0.384196,0-0.715288-0.075-0.993278-0.2249-0.274872-0.15305-0.502889-0.38575-0.684051-0.6981m2.932982-1.83195c-0.000004-0.63407-0.131192-1.13071-0.393563-1.48991-0.259256-0.36233-0.616898-0.54349-1.072928-0.5435-0.456036,0.00001-0.81524,0.18117-1.077613,0.5435-0.259254,0.3592-0.388879,0.85584-0.388878,1.48991-0.000001,0.63408,0.129624,1.13228,0.388878,1.49461,0.262373,0.3592,0.621577,0.5388,1.077613,0.5388,0.45603,0,0.813672-0.1796,1.072928-0.5388,0.262371-0.36233,0.393559-0.86053,0.393563-1.49461"/>
   <path d="m58.200383,151.55719,0.862091,0,0,5.24751-0.862091,0,0-5.24751m0-2.04277,0.862091,0,0,1.09166-0.862091,0,0-1.09166"/>
   <path d="m64.63795,151.75866,0,0.80587c-0.243638-0.13431-0.488834-0.23426-0.735588-0.29986-0.243638-0.0687-0.490395-0.10307-0.740273-0.10307-0.559112,0-0.993281,0.17804-1.302507,0.53412-0.309229,0.35296-0.463843,0.8496-0.463842,1.48991-0.000001,0.64033,0.154613,1.13853,0.463842,1.49461,0.309226,0.35295,0.743395,0.52943,1.302507,0.52943,0.249878,0,0.496635-0.0328,0.740273-0.0984,0.246754-0.0687,0.49195-0.17023,0.735588-0.30454v0.7965c-0.240515,0.11244-0.490396,0.19678-0.749644,0.253-0.256132,0.0562-0.529439,0.0843-0.819923,0.0843-0.790252,0-1.418078-0.24832-1.88348-0.74496-0.465405-0.49664-0.698107-1.16663-0.698106-2.00999-0.000001-0.85584,0.234263-1.52895,0.702791-2.01935,0.471649-0.49039,1.116655-0.73558,1.935019-0.73559,0.265495,0.00001,0.524747,0.0281,0.777755,0.0843,0.253001,0.0531,0.498197,0.13431,0.735588,0.24363"/>
  </g>
 </g>
 <g transform="translate(-5.9604645e-8,587.99997)">
  <g style="letter-spacing:0px;word-spacing:0px;" font-family="Sans" font-size="9.60000038px" line-height="125%" font-style="normal" font-weight="normal" fill="#FFF">
   <path d="m17.328167,375.55468,0,0.81563c-0.243754-0.125-0.496879-0.21875-0.759375-0.28125-0.262504-0.0625-0.534378-0.0937-0.815626-0.0937-0.428127,0-0.750001,0.0656-0.965625,0.19687-0.212501,0.13126-0.318751,0.32813-0.31875,0.59063-0.000001,0.2,0.07656,0.35781,0.229688,0.47343,0.153123,0.11251,0.460935,0.22032,0.923437,0.32344l0.295313,0.0656c0.612497,0.13125,1.046871,0.31719,1.303125,0.55781,0.259371,0.2375,0.389058,0.57031,0.389063,0.99844-0.000005,0.4875-0.193755,0.87343-0.58125,1.15781-0.384379,0.28437-0.914066,0.42656-1.589063,0.42656-0.281252,0-0.575002-0.0281-0.88125-0.0844-0.303126-0.0531-0.623438-0.13438-0.960938-0.24375v-0.89063c0.31875,0.16563,0.632812,0.29063,0.942188,0.375,0.309373,0.0813,0.615623,0.12188,0.91875,0.12188,0.406247,0,0.718747-0.0687,0.9375-0.20625,0.218746-0.14063,0.328121-0.3375,0.328125-0.59063-0.000004-0.23437-0.07969-0.41406-0.239062-0.53906-0.156254-0.125-0.501566-0.24531-1.035938-0.36094l-0.3-0.0703c-0.534377-0.1125-0.920314-0.28437-1.157813-0.51563-0.2375-0.23437-0.35625-0.55468-0.35625-0.96093,0-0.49375,0.175-0.875,0.525-1.14375,0.349999-0.26875,0.846874-0.40312,1.490625-0.40313,0.318748,0.00001,0.618747,0.0234,0.900001,0.0703,0.281246,0.0469,0.540621,0.1172,0.778125,0.21094"/>
   <path d="m18.898479,378.57812,0-3.17813,0.8625,0,0,3.14532c-0.000001,0.49687,0.09687,0.87031,0.290625,1.12031,0.193748,0.24687,0.484373,0.37031,0.871875,0.37031,0.465622,0,0.832809-0.14844,1.101563-0.44531,0.271871-0.29687,0.407808-0.70156,0.407812-1.21406v-2.97657h0.8625v5.25h-0.8625v-0.80625c-0.209379,0.31875-0.453128,0.55625-0.73125,0.7125-0.275003,0.15313-0.595315,0.22969-0.960937,0.22969-0.603127,0-1.060939-0.1875-1.373438-0.5625-0.312501-0.375-0.468751-0.92343-0.46875-1.64531"/>
   <path d="m28.850042,378.02968c-0.000005-0.63437-0.131255-1.13125-0.39375-1.49062-0.259379-0.3625-0.617191-0.54375-1.073438-0.54375-0.456252,0-0.815627,0.18125-1.078125,0.54375-0.259377,0.35937-0.389064,0.85625-0.389062,1.49062-0.000002,0.63438,0.129685,1.13282,0.389062,1.49531,0.262498,0.35938,0.621873,0.53907,1.078125,0.53907,0.456247,0,0.814059-0.17969,1.073438-0.53907,0.262495-0.36249,0.393745-0.86093,0.39375-1.49531m-2.934375-1.83281c0.181248-0.3125,0.409373-0.54375,0.684375-0.69375,0.278122-0.15312,0.609372-0.22968,0.99375-0.22969,0.637496,0.00001,1.154683,0.25313,1.551562,0.75938,0.399995,0.50625,0.599995,1.17187,0.6,1.99687-0.000005,0.825-0.200005,1.49063-0.6,1.99688-0.396879,0.50625-0.914066,0.75937-1.551562,0.75937-0.384378,0-0.715628-0.075-0.99375-0.225-0.275002-0.15312-0.503127-0.38594-0.684375-0.69844v0.7875h-0.867188v-7.29375h0.867188v2.84063"/>
   <path d="m35.084418,373.90937,0,1.49062,1.776563,0,0,0.67032-1.776563,0,0,2.85c-0.000001,0.42812,0.05781,0.70312,0.173438,0.825,0.118748,0.12187,0.35781,0.18281,0.717187,0.18281h0.885938v0.72187h-0.885938c-0.665627,0-1.125001-0.12343-1.378125-0.37031-0.253126-0.25-0.379688-0.70312-0.379687-1.35937v-2.85h-0.632813v-0.67032h0.632813v-1.49062h0.867187"/>
   <path d="m40.034418,376.00468c-0.462503,0.00001-0.828127,0.18126-1.096875,0.54375-0.268752,0.35938-0.403127,0.85313-0.403125,1.48125-0.000002,0.62813,0.132811,1.12344,0.398437,1.48594,0.268748,0.35937,0.635935,0.53906,1.101563,0.53906,0.459371,0,0.823433-0.18125,1.092187-0.54375,0.268746-0.3625,0.403121-0.85625,0.403125-1.48125-0.000004-0.62187-0.134379-1.11406-0.403125-1.47656-0.268754-0.36562-0.632816-0.54843-1.092187-0.54844m0-0.73125c0.749996,0.00001,1.339058,0.24376,1.767187,0.73125,0.42812,0.48751,0.642182,1.1625,0.642188,2.025-0.000006,0.85938-0.214068,1.53438-0.642188,2.025-0.428129,0.4875-1.017191,0.73125-1.767187,0.73125-0.753128,0-1.343752-0.24375-1.771875-0.73125-0.425001-0.49062-0.637501-1.16562-0.6375-2.025-0.000001-0.8625,0.212499-1.53749,0.6375-2.025,0.428123-0.48749,1.018747-0.73124,1.771875-0.73125"/>
   <path d="m44.703167,379.86249,0,2.78438-0.867187,0,0-7.24688,0.867187,0,0,0.79688c0.181248-0.3125,0.409373-0.54375,0.684375-0.69375,0.278123-0.15312,0.609372-0.22968,0.99375-0.22969,0.637496,0.00001,1.154683,0.25313,1.551563,0.75938,0.399994,0.50625,0.599994,1.17187,0.6,1.99687-0.000006,0.825-0.200006,1.49063-0.6,1.99688-0.39688,0.50625-0.914067,0.75937-1.551563,0.75937-0.384378,0-0.715627-0.075-0.99375-0.225-0.275002-0.15312-0.503127-0.38594-0.684375-0.69844m2.934375-1.83281c-0.000004-0.63437-0.131254-1.13125-0.39375-1.49062-0.259379-0.3625-0.617191-0.54375-1.073437-0.54375-0.456253,0-0.815628,0.18125-1.078125,0.54375-0.259377,0.35937-0.389065,0.85625-0.389063,1.49062-0.000002,0.63438,0.129686,1.13282,0.389063,1.49531,0.262497,0.35938,0.621872,0.53907,1.078125,0.53907,0.456246,0,0.814058-0.17969,1.073437-0.53907,0.262496-0.36249,0.393746-0.86093,0.39375-1.49531"/>
   <path d="m49.962542,375.39999,0.8625,0,0,5.25-0.8625,0,0-5.25m0-2.04375,0.8625,0,0,1.09219-0.8625,0,0-1.09219"/>
   <path d="m56.40317,375.60156,0,0.80625c-0.243755-0.13437-0.489067-0.23437-0.735938-0.3-0.243754-0.0687-0.490628-0.10312-0.740625-0.10313-0.559378,0.00001-0.993752,0.17813-1.303125,0.53438-0.309377,0.35313-0.464064,0.85-0.464063,1.49062-0.000001,0.64063,0.154686,1.13907,0.464063,1.49531,0.309373,0.35313,0.743747,0.52969,1.303125,0.52969,0.249997,0,0.496871-0.0328,0.740625-0.0984,0.246871-0.0687,0.492183-0.17031,0.735938-0.30468v0.79687c-0.24063,0.1125-0.49063,0.19688-0.75,0.25313-0.256254,0.0563-0.529691,0.0844-0.820313,0.0844-0.790627,0-1.418752-0.24844-1.884375-0.74531-0.465626-0.49688-0.698438-1.16719-0.698438-2.01094,0-0.85625,0.234375-1.52968,0.703125-2.02031,0.471874-0.49062,1.117186-0.73593,1.935938-0.73594,0.265622,0.00001,0.524996,0.0281,0.778125,0.0844,0.253121,0.0531,0.498433,0.13438,0.735938,0.24375"/>
  </g>
 </g>
 <g stroke="#F55" transform="translate(-5.9604645e-8,587.99997)">
  <rect stroke-dasharray="none" stroke-dashoffset="0" ry="5.9914999" height="24.488001" width="68.269135" stroke-miterlimit="4" y="253.7571" x="0.86545855" stroke-width="1.73087788" fill="none"/>
  <g style="letter-spacing:0px;word-spacing:0px;" stroke-width="0.99952525" font-weight="normal" font-size="9.59544277px" transform="scale(0.99952525,1.000475)" line-height="125%" font-style="normal" font-family="Sans" fill="#FFF">
   <path d="m15.141145,262.91375,0,0.99796c-0.318605-0.29673-0.659068-0.5185-1.02139-0.66531-0.359209-0.1468-0.74184-0.2202-1.147892-0.22021-0.799624,0.00001-1.411832,0.24521-1.836628,0.73559-0.4248,0.48728-0.637199,1.19319-0.637197,2.11775-0.000002,0.92144,0.212397,1.62735,0.637197,2.11774,0.424796,0.48727,1.037004,0.7309,1.836628,0.7309,0.406052,0,0.788683-0.0734,1.147892-0.2202,0.362322-0.14681,0.702785-0.36858,1.02139-0.66531v0.98859c-0.331099,0.22489-0.682494,0.39356-1.054187,0.50601-0.36858,0.11245-0.759019,0.16867-1.171319,0.16867-1.058875,0-1.892853-0.32328-2.501936-0.96985-0.6090869-0.64969-0.9136295-1.53521-0.9136289-2.65655-6E-7-1.12446,0.304542-2.00998,0.9136289-2.65655,0.609083-0.64969,1.443061-0.97453,2.501936-0.97454,0.418547,0.00001,0.81211,0.0562,1.18069,0.16867,0.371693,0.10933,0.719964,0.27487,1.044816,0.49664"/>
   <path d="m18.608248,264.72695c-0.462283,0-0.827734,0.18117-1.096354,0.54349-0.268624,0.35921-0.402935,0.85272-0.402934,1.48055-0.000001,0.62783,0.132748,1.1229,0.398249,1.48523,0.26862,0.3592,0.635633,0.53881,1.101039,0.53881,0.459154,0,0.823043-0.18117,1.091669-0.5435,0.268618-0.36232,0.402929-0.85584,0.402934-1.48054-0.000005-0.62158-0.134316-1.11353-0.402934-1.47586-0.268626-0.36545-0.632515-0.54818-1.091669-0.54818m0-0.7309c0.74964,0,1.338423,0.24364,1.766349,0.7309,0.427916,0.48727,0.641877,1.16195,0.641882,2.02404-0.000005,0.85897-0.213966,1.53365-0.641882,2.02404-0.427926,0.48726-1.016709,0.7309-1.766349,0.7309-0.75277,0-1.343114-0.24364-1.771034-0.7309-0.424799-0.49039-0.637198-1.16507-0.637197-2.02404-0.000001-0.86209,0.212398-1.53677,0.637197-2.02404,0.42792-0.48726,1.018264-0.7309,1.771034-0.7309"/>
   <path d="m26.526362,265.12988c0.215518-0.38731,0.473208-0.67311,0.773071-0.8574,0.299851-0.18429,0.652808-0.27643,1.058872-0.27643,0.546608,0,0.968282,0.1921,1.265024,0.57628,0.296726,0.38108,0.445093,0.92457,0.445101,1.63048v3.16725h-0.866776v-3.13914c-0.000007-0.50288-0.08903-0.87614-0.26706-1.11978-0.178048-0.24363-0.449794-0.36545-0.815238-0.36545-0.446669,0-0.799626,0.14837-1.058872,0.4451-0.259257,0.29674-0.388883,0.70123-0.388878,1.21349v2.96578h-0.866776v-3.13914c-0.000004-0.506-0.08902-0.87926-0.267061-1.11978-0.178044-0.24363-0.452913-0.36545-0.824608-0.36545-0.440418,0-0.790252,0.14993-1.049501,0.44979-0.259254,0.29673-0.38888,0.69967-0.388878,1.2088v2.96578h-0.866776v-5.24751h0.866776v0.81524c0.196779-0.32172,0.432605-0.55911,0.707476-0.71217,0.274867-0.15304,0.601274-0.22957,0.979223-0.22957,0.381065,0,0.704349,0.0968,0.969852,0.29048,0.268617,0.19367,0.46696,0.47478,0.595029,0.84335"/>
   <path d="m35.878171,265.12988c0.215517-0.38731,0.473207-0.67311,0.77307-0.8574,0.299852-0.18429,0.652809-0.27643,1.058872-0.27643,0.546608,0,0.968283,0.1921,1.265025,0.57628,0.296725,0.38108,0.445092,0.92457,0.445101,1.63048v3.16725h-0.866776v-3.13914c-0.000008-0.50288-0.08903-0.87614-0.267061-1.11978-0.178047-0.24363-0.449793-0.36545-0.815238-0.36545-0.446669,0-0.799626,0.14837-1.058872,0.4451-0.259257,0.29674-0.388883,0.70123-0.388877,1.21349v2.96578h-0.866776v-3.13914c-0.000005-0.506-0.08902-0.87926-0.267061-1.11978-0.178044-0.24363-0.452913-0.36545-0.824608-0.36545-0.440419,0-0.790252,0.14993-1.049502,0.44979-0.259254,0.29673-0.388879,0.69967-0.388878,1.2088v2.96578h-0.866776v-5.24751h0.866776v0.81524c0.19678-0.32172,0.432605-0.55911,0.707477-0.71217,0.274867-0.15304,0.601274-0.22957,0.979222-0.22957,0.381065,0,0.704349,0.0968,0.969852,0.29048,0.268618,0.19367,0.466961,0.47478,0.59503,0.84335"/>
   <path d="m45.632913,266.53078,0,0.42167-3.963742,0c0.03748,0.59347,0.215521,1.04638,0.534121,1.35873,0.32172,0.30923,0.768382,0.46385,1.339989,0.46385,0.331089,0,0.651249-0.0406,0.960481-0.12182,0.312347-0.0812,0.621575-0.20303,0.927684-0.36545v0.81524c-0.309233,0.13118-0.626269,0.23114-0.95111,0.29985-0.32485,0.0687-0.654381,0.10308-0.988593,0.10308-0.837105,0-1.500852-0.24364-1.991242-0.7309-0.48727-0.48727-0.730904-1.14633-0.730903-1.97719-0.000001-0.85896,0.231139-1.53989,0.693421-2.04278,0.465402-0.506,1.091666-0.75901,1.878795-0.75901,0.705911,0,1.263458,0.22802,1.672643,0.68405,0.412299,0.45291,0.618451,1.0698,0.618456,1.85068m-0.86209-0.25301c-0.0063-0.47164-0.139001-0.84803-0.398249-1.12915-0.256132-0.28111-0.596595-0.42167-1.02139-0.42167-0.481024,0-0.866778,0.13588-1.157263,0.40762-0.287365,0.27175-0.452911,0.65438-0.496639,1.14789l3.073541-0.005"/>
   <path d="m51.409859,266.20281,0,3.16725-0.862091,0,0-3.13914c-0.000004-0.49663-0.09683-0.86833-0.290487-1.11509-0.193662-0.24676-0.484148-0.37014-0.871461-0.37014-0.465407,0-0.832419,0.14837-1.101039,0.4451-0.268625,0.29674-0.402936,0.70123-0.402934,1.21349v2.96578h-0.866776v-5.24751h0.866776v0.81524c0.20615-0.31547,0.448222-0.5513,0.726218-0.70748,0.281113-0.15617,0.604397-0.23426,0.969851-0.23426,0.602835,0,1.058868,0.18741,1.368101,0.56223,0.309223,0.3717,0.463837,0.91988,0.463842,1.64453"/>
   <path d="m53.991443,262.63263,0,1.48992,1.775719,0,0,0.66999-1.775719,0,0,2.84865c-0.000002,0.42792,0.05778,0.70279,0.173355,0.82461,0.118691,0.12182,0.35764,0.18272,0.716847,0.18272h0.885517v0.72154h-0.885517c-0.665311,0-1.124468-0.12338-1.377471-0.37014-0.253006-0.24988-0.379508-0.70279-0.379507-1.35873v-2.84865h-0.632512v-0.66999h0.632512v-1.48992h0.866776"/>
   <path d="m60.250969,264.27716,0,0.81524c-0.243638-0.12494-0.496643-0.21864-0.759014-0.28112-0.262379-0.0625-0.534125-0.0937-0.815238-0.0937-0.427924,0-0.749646,0.0656-0.965167,0.19678-0.212401,0.13119-0.3186,0.32797-0.318599,0.59034-0.000001,0.19991,0.07653,0.35765,0.229579,0.47322,0.15305,0.11245,0.460716,0.22021,0.922999,0.32328l0.295172,0.0656c0.612206,0.13119,1.046374,0.31703,1.302507,0.55754,0.259247,0.23739,0.388873,0.57005,0.388878,0.99797-0.000005,0.48727-0.193663,0.87302-0.580975,1.15726-0.384196,0.28424-0.913631,0.42636-1.588308,0.42636-0.281118,0-0.574729-0.0281-0.880831-0.0843-0.302983-0.0531-0.623143-0.13431-0.960482-0.24363v-0.8902c0.318598,0.16554,0.632511,0.29049,0.941741,0.37482,0.309226,0.0812,0.61533,0.12182,0.918313,0.12182,0.406055,0,0.718406-0.0687,0.937055-0.20616,0.218643-0.14055,0.327966-0.33733,0.32797-0.59034-0.000004-0.23426-0.07965-0.41386-0.238949-0.53881-0.15618-0.12494-0.501328-0.24519-1.035446-0.36076l-0.299858-0.0703c-0.534123-0.11245-0.919877-0.28424-1.157263-0.51538-0.237388-0.23426-0.356081-0.55442-0.356081-0.96048,0-0.49351,0.174917-0.87458,0.524751-1.14321,0.349833-0.26862,0.846471-0.40293,1.489918-0.40293,0.318595,0,0.618453,0.0234,0.899572,0.0703,0.281113,0.0469,0.540365,0.11713,0.777756,0.21083"/>
  </g>
 </g>
 <g transform="translate(-5.9604645e-8,587.99997)">
  <rect stroke-dasharray="none" stroke-dashoffset="0" ry="5.9914999" height="24.488001" width="68.269203" stroke="#FFF" stroke-miterlimit="4" y="337.75745" x="0.86543941" stroke-width="1.73087871" fill="none"/>
  <g style="letter-spacing:0px;word-spacing:0px;" font-weight="normal" transform="scale(0.9995258,1.0004744)" font-size="9.59544849px" font-style="normal" font-family="Sans" line-height="125%" fill="#FFF">
   <path d="m15.1417,346.87203,0,0.99796c-0.318605-0.29673-0.659068-0.5185-1.021391-0.66531-0.359209-0.1468-0.74184-0.2202-1.147893-0.22021-0.799624,0.00001-1.411833,0.24521-1.836629,0.73559-0.4248,0.48728-0.637199,1.19319-0.637197,2.11775-0.000002,0.92144,0.212397,1.62735,0.637197,2.11774,0.424796,0.48727,1.037005,0.73091,1.836629,0.73091,0.406053,0,0.788684-0.0734,1.147893-0.22021,0.362323-0.14681,0.702786-0.36858,1.021391-0.66531v0.98859c-0.331099,0.2249-0.682494,0.39357-1.054188,0.50601-0.36858,0.11245-0.759019,0.16867-1.171319,0.16867-1.058876,0-1.892854-0.32328-2.501938-0.96985-0.6090872-0.64969-0.9136299-1.53521-0.9136294-2.65655-5E-7-1.12447,0.3045422-2.00998,0.9136294-2.65656,0.609084-0.64968,1.443062-0.97453,2.501938-0.97453,0.418547,0,0.81211,0.0562,1.18069,0.16867,0.371693,0.10933,0.719965,0.27487,1.044817,0.49664"/>
   <path d="m18.608805,348.68523c-0.462283,0-0.827734,0.18117-1.096355,0.54349-0.268624,0.35921-0.402935,0.85272-0.402933,1.48055-0.000002,0.62783,0.132748,1.1229,0.398248,1.48523,0.268621,0.35921,0.635634,0.53881,1.10104,0.53881,0.459154,0,0.823044-0.18116,1.09167-0.54349,0.268618-0.36233,0.40293-0.85585,0.402934-1.48055-0.000004-0.62158-0.134316-1.11353-0.402934-1.47586-0.268626-0.36545-0.632516-0.54818-1.09167-0.54818m0-0.7309c0.749641,0,1.338424,0.24363,1.76635,0.7309,0.427917,0.48727,0.641878,1.16195,0.641883,2.02404-0.000005,0.85897-0.213966,1.53365-0.641883,2.02404-0.427926,0.48727-1.016709,0.7309-1.76635,0.7309-0.75277,0-1.343114-0.24363-1.771035-0.7309-0.424799-0.49039-0.637198-1.16507-0.637197-2.02404-0.000001-0.86209,0.212398-1.53677,0.637197-2.02404,0.427921-0.48727,1.018265-0.7309,1.771035-0.7309"/>
   <path d="m26.526924,349.08816c0.215518-0.38731,0.473208-0.67311,0.773071-0.8574,0.299852-0.18429,0.652809-0.27643,1.058873-0.27643,0.546608,0,0.968283,0.1921,1.265025,0.57628,0.296726,0.38108,0.445093,0.92457,0.445101,1.63048v3.16725h-0.866776v-3.13914c-0.000008-0.50288-0.08903-0.87614-0.267061-1.11978-0.178048-0.24363-0.449794-0.36545-0.815238-0.36545-0.44667,0-0.799627,0.14837-1.058873,0.4451-0.259257,0.29674-0.388883,0.70123-0.388878,1.21349v2.96578h-0.866776v-3.13914c-0.000005-0.506-0.08902-0.87926-0.267061-1.11978-0.178045-0.24363-0.452914-0.36545-0.824609-0.36545-0.440419,0-0.790253,0.14993-1.049502,0.44979-0.259254,0.29673-0.38888,0.69967-0.388878,1.2088v2.96578h-0.866777v-5.24751h0.866777v0.81524c0.196779-0.32172,0.432605-0.55911,0.707477-0.71217,0.274866-0.15304,0.601274-0.22957,0.979223-0.22957,0.381065,0,0.704349,0.0968,0.969852,0.29048,0.268618,0.19367,0.466961,0.47478,0.59503,0.84335"/>
   <path d="m35.878739,349.08816c0.215517-0.38731,0.473207-0.67311,0.77307-0.8574,0.299852-0.18429,0.652809-0.27643,1.058873-0.27643,0.546608,0,0.968283,0.1921,1.265025,0.57628,0.296726,0.38108,0.445093,0.92457,0.445101,1.63048v3.16725h-0.866776v-3.13914c-0.000008-0.50288-0.08903-0.87614-0.267061-1.11978-0.178048-0.24363-0.449793-0.36545-0.815238-0.36545-0.446669,0-0.799627,0.14837-1.058873,0.4451-0.259257,0.29674-0.388883,0.70123-0.388878,1.21349v2.96578h-0.866776v-3.13914c-0.000004-0.506-0.08902-0.87926-0.267061-1.11978-0.178044-0.24363-0.452914-0.36545-0.824609-0.36545-0.440419,0-0.790252,0.14993-1.049502,0.44979-0.259254,0.29673-0.38888,0.69967-0.388878,1.2088v2.96578h-0.866776v-5.24751h0.866776v0.81524c0.19678-0.32172,0.432605-0.55911,0.707477-0.71217,0.274867-0.15304,0.601274-0.22957,0.979223-0.22957,0.381065,0,0.704349,0.0968,0.969852,0.29048,0.268618,0.19367,0.466961,0.47478,0.595031,0.84335"/>
   <path d="m45.633487,350.48906,0,0.42168-3.963745,0c0.03748,0.59347,0.215521,1.04638,0.534122,1.35873,0.32172,0.30922,0.768382,0.46384,1.339989,0.46384,0.331089,0,0.65125-0.0406,0.960482-0.12182,0.312347-0.0812,0.621575-0.20303,0.927685-0.36545v0.81524c-0.309233,0.13119-0.62627,0.23114-0.951112,0.29986-0.324849,0.0687-0.65438,0.10307-0.988593,0.10307-0.837106,0-1.500853-0.24363-1.991243-0.7309-0.48727-0.48727-0.730904-1.14633-0.730903-1.97719-0.000001-0.85896,0.231139-1.53989,0.693421-2.04278,0.465402-0.506,1.091667-0.75901,1.878796-0.75901,0.705911,0,1.263459,0.22802,1.672644,0.68405,0.412299,0.45291,0.618451,1.0698,0.618457,1.85068m-0.862091-0.253c-0.0063-0.47165-0.139001-0.84804-0.398249-1.12916-0.256132-0.28111-0.596596-0.42167-1.02139-0.42167-0.481025,0-0.866779,0.13588-1.157264,0.40762-0.287365,0.27175-0.452912,0.65438-0.496639,1.14789l3.073542-0.005"/>
   <path d="m51.410436,350.16109,0,3.16725-0.862091,0,0-3.13914c-0.000004-0.49663-0.09683-0.86833-0.290487-1.11509-0.193662-0.24676-0.484149-0.37014-0.871462-0.37014-0.465407,0-0.83242,0.14837-1.10104,0.4451-0.268624,0.29674-0.402936,0.70123-0.402934,1.21349v2.96578h-0.866776v-5.24751h0.866776v0.81524c0.20615-0.31547,0.448223-0.5513,0.726218-0.70748,0.281114-0.15617,0.604398-0.23426,0.969853-0.23426,0.602835,0,1.058868,0.18741,1.368101,0.56223,0.309223,0.3717,0.463837,0.91988,0.463842,1.64453"/>
   <path d="m53.992022,346.59091,0,1.48992,1.77572,0,0,0.66999-1.77572,0,0,2.84865c-0.000002,0.42792,0.05778,0.70279,0.173355,0.82461,0.118692,0.12182,0.357641,0.18273,0.716847,0.18273h0.885518v0.72153h-0.885518c-0.665311,0-1.124468-0.12338-1.377471-0.37014-0.253006-0.24988-0.379509-0.70279-0.379508-1.35873v-2.84865h-0.632512v-0.66999h0.632512v-1.48992h0.866777"/>
   <path d="m60.251553,348.23544,0,0.81524c-0.243638-0.12494-0.496643-0.21864-0.759015-0.28112-0.262378-0.0625-0.534124-0.0937-0.815238-0.0937-0.427924,0-0.749646,0.0656-0.965167,0.19678-0.212401,0.13119-0.3186,0.32797-0.318599,0.59034-0.000001,0.19991,0.07652,0.35765,0.229579,0.47322,0.15305,0.11245,0.460716,0.22021,0.922999,0.32328l0.295173,0.0656c0.612206,0.13119,1.046375,0.31704,1.302507,0.55754,0.259248,0.23739,0.388873,0.57005,0.388878,0.99797-0.000005,0.48727-0.193663,0.87302-0.580974,1.15726-0.384197,0.28424-0.913633,0.42636-1.58831,0.42636-0.281118,0-0.574729-0.0281-0.880832-0.0843-0.302982-0.0531-0.623143-0.13431-0.960482-0.24364v-0.8902c0.318598,0.16555,0.632512,0.29049,0.941741,0.37482,0.309227,0.0812,0.615331,0.12182,0.918315,0.12182,0.406054,0,0.718406-0.0687,0.937055-0.20615,0.218643-0.14056,0.327966-0.33734,0.327969-0.59035-0.000003-0.23426-0.07965-0.41386-0.238949-0.53881-0.156179-0.12493-0.501327-0.24519-1.035446-0.36076l-0.299858-0.0703c-0.534123-0.11244-0.919877-0.28424-1.157263-0.51538-0.237388-0.23426-0.356082-0.55442-0.356081-0.96048-0.000001-0.49351,0.174916-0.87458,0.524751-1.14321,0.349832-0.26862,0.846471-0.40293,1.489918-0.40293,0.318596,0,0.618453,0.0234,0.899573,0.0703,0.281113,0.0469,0.540365,0.11714,0.777756,0.21084"/>
  </g>
 </g>
 <path stroke-linejoin="miter" d="m24.778542,1106.0021,20.443,0" stroke="#FFF" stroke-linecap="round" stroke-miterlimit="4" stroke-dasharray="none" stroke-width="2.64599991" fill="none"/>
 <path stroke-linejoin="miter" d="m35.000042,1083.893,0-11.782" stroke="#FFF" stroke-linecap="round" stroke-miterlimit="4" stroke-dasharray="none" stroke-width="2.64599991" fill="none"/>
 <g transform="translate(-5.9604645e-8,587.99997)">
  <g transform="translate(6.7430618,-136.70079)">
   <g stroke="#FFF" transform="translate(-1007.2117,10.966775)">
    <path stroke-linejoin="round" d="m157.5,309.36c0,1.3807-3.134,2.5-7,2.5s-7-1.1193-7-2.5,3.134-2.5,7-2.5,7,1.1193,7,2.5z" fill-opacity="0" stroke-dashoffset="0" transform="matrix(1.6839311,0,0,1,782.0047,45.499999)" stroke-linecap="round" stroke-miterlimit="4" stroke-dasharray="none" stroke-width="1"/>
    <path stroke-linejoin="round" d="m157.5,309.36c0,1.3807-3.134,2.5-7,2.5s-7-1.1193-7-2.5,3.134-2.5,7-2.5,7,1.1193,7,2.5z" fill-opacity="0" stroke-dashoffset="0" transform="matrix(1.6839311,0,0,1,782.0047,63.249999)" stroke-linecap="round" stroke-miterlimit="4" stroke-dasharray="none" stroke-width="1"/>
    <path stroke-linejoin="miter" d="m1023.5,354.61,0,17.63" stroke-linecap="butt" stroke-width="0.85707837px" fill="#666"/>
    <path stroke-linejoin="miter" d="m1047.5,354.61,0,18.365" stroke-linecap="butt" stroke-width="0.87476188px" fill="none"/>
   </g>
  </g>
  <g style="letter-spacing:0px;word-spacing:0px;" font-family="Sans" font-size="9.60000038px" line-height="125%" font-style="normal" font-weight="normal" fill="#FFF">
   <path d="m29.939886,235.71043,0,5.44219,1.14375,0c0.965621,0,1.67187-0.21875,2.11875-0.65625,0.449994-0.4375,0.674994-1.12813,0.675-2.07188-0.000006-0.9375-0.225006-1.62343-0.675-2.05781-0.44688-0.4375-1.153129-0.65625-2.11875-0.65625h-1.14375m-0.946875-0.77813,1.945312,0c1.356246,0.00001,2.351558,0.28282,2.985938,0.84844,0.634368,0.56251,0.951556,1.44375,0.951562,2.64375-0.000006,1.20625-0.318756,2.09219-0.95625,2.65781-0.637505,0.56563-1.631254,0.84844-2.98125,0.84844h-1.945312v-6.99844"/>
   <path d="m40.111761,239.31043c-0.000004-0.63437-0.131254-1.13125-0.39375-1.49063-0.259379-0.36249-0.617191-0.54374-1.073437-0.54375-0.456253,0.00001-0.815628,0.18126-1.078125,0.54375-0.259377,0.35938-0.389065,0.85626-0.389063,1.49063-0.000002,0.63437,0.129686,1.13281,0.389063,1.49531,0.262497,0.35938,0.621872,0.53906,1.078125,0.53906,0.456246,0,0.814058-0.17968,1.073437-0.53906,0.262496-0.3625,0.393746-0.86094,0.39375-1.49531m-2.934375-1.83281c0.181248-0.3125,0.409373-0.54375,0.684375-0.69375,0.278122-0.15312,0.609372-0.22969,0.99375-0.22969,0.637496,0,1.154683,0.25313,1.551563,0.75937,0.399994,0.50626,0.599994,1.17188,0.6,1.99688-0.000006,0.825-0.200006,1.49062-0.6,1.99687-0.39688,0.50625-0.914067,0.75938-1.551563,0.75938-0.384378,0-0.715628-0.075-0.99375-0.225-0.275002-0.15313-0.503127-0.38594-0.684375-0.69844v0.7875h-0.867187v-7.29375h0.867187v2.84063"/>
  </g>
 </g>
 <path fill="#FFF" d="m27.268011,1046.5636,0,1.4906,1.776563,0,0,0.6703-1.776563,0,0,2.85c-0.000002,0.4282,0.05781,0.7032,0.173438,0.825,0.118748,0.1219,0.35781,0.1829,0.717187,0.1829h0.885938v0.7218h-0.885938c-0.665627,0-1.125001-0.1234-1.378125-0.3703-0.253126-0.25-0.379688-0.7031-0.379687-1.3594v-2.85h-0.632813v-0.6703h0.632813v-1.4906h0.867187"/>
 <path fill="#FFF" d="m34.674261,1050.4636,0,0.4219-3.965625,0c0.0375,0.5937,0.215624,1.0469,0.534375,1.3594,0.321873,0.3093,0.768748,0.464,1.340625,0.464,0.331247,0,0.651559-0.041,0.960938-0.1219,0.312495-0.081,0.62187-0.2031,0.928125-0.3656v0.8156c-0.30938,0.1313-0.626567,0.2313-0.951563,0.3-0.325003,0.069-0.654691,0.1032-0.989062,0.1032-0.837503,0-1.501564-0.2438-1.992188-0.7313-0.4875-0.4875-0.73125-1.1469-0.73125-1.9781,0-0.8594,0.23125-1.5406,0.69375-2.0438,0.465624-0.5062,1.092186-0.7593,1.879688-0.7593,0.706246,0,1.264058,0.2281,1.673437,0.6843,0.412495,0.4532,0.618745,1.0704,0.61875,1.8516m-0.8625-0.2531c-0.0063-0.4719-0.139066-0.8485-0.398437-1.1297-0.256254-0.2813-0.596879-0.4219-1.021875-0.4219-0.481253,0-0.86719,0.136-1.157813,0.4078-0.287501,0.2719-0.453126,0.6547-0.496875,1.1485l3.075-0.01"/>
 <path fill="#FFF" d="m40.285199,1048.0542-1.898437,2.5547,1.996875,2.6953-1.017188,0-1.528125-2.0625-1.528125,2.0625-1.017188,0,2.039063-2.7468-1.865625-2.5032,1.017188,0,1.392187,1.8703,1.392188-1.8703,1.017187,0"/>
 <path fill="#FFF" d="m42.455511,1046.5636,0,1.4906,1.776563,0,0,0.6703-1.776563,0,0,2.85c-0.000002,0.4282,0.05781,0.7032,0.173438,0.825,0.118748,0.1219,0.35781,0.1829,0.717187,0.1829h0.885938v0.7218h-0.885938c-0.665627,0-1.125001-0.1234-1.378125-0.3703-0.253126-0.25-0.379688-0.7031-0.379687-1.3594v-2.85h-0.632813v-0.6703h0.632813v-1.4906h0.867187"/>
 <g transform="translate(-4.6059605e-5,503.99967)">
  <rect stroke-dasharray="none" stroke-dashoffset="0" height="14.38" width="52.833" stroke="#FFF" stroke-miterlimit="4" y="62.810287" x="8.58354" stroke-width="1.16690004" fill="none"/>
 </g>
 <rect stroke-linejoin="miter" stroke-dasharray="none" height="6.7966914" width="4.5474262" stroke="#FFF" stroke-linecap="round" stroke-miterlimit="4" y="568.44116" x="53.982353" stroke-width="0.99999994" fill="none"/>
 <rect stroke-linejoin="miter" stroke-dasharray="none" height="0.38320884" width="3.1294117" stroke="#FFF" stroke-linecap="round" stroke-miterlimit="4" y="570.12787" x="51.97757" stroke-width="1" fill="#FFF"/>
 <rect stroke-linejoin="miter" stroke-dasharray="none" height="0.38320884" width="3.1783087" stroke="#FFF" stroke-linecap="round" stroke-miterlimit="4" y="573.01495" x="51.942993" stroke-width="0.99999994" fill="#FFF"/>
 <text style="letter-spacing:0px;word-spacing:0px;" line-height="125%" font-weight="normal" font-size="40px" font-style="normal" y="1126.2146" x="-1949.1727" font-family="Sans" xml:space="preserve" fill="#000000"><tspan y="1126.2146" x="-1949.1727"/></text>
 <text style="letter-spacing:0px;word-spacing:0px;" font-weight="normal" xml:space="preserve" font-size="40px" font-style="normal" y="1489.5695" x="-2464.3025" font-family="Sans" line-height="125%" fill="#000000"><tspan x="-2464.3025" y="1489.5695"/></text>
 <g transform="translate(-928.17273,510.85236)">
  <text style="letter-spacing:0px;word-spacing:0px;" font-weight="normal" xml:space="preserve" font-size="9.60000038px" font-style="normal" y="65.652985" x="947.95648" font-family="Sans" line-height="125%" fill="#ffffff"><tspan font-size="9.60000038px" y="65.652985" x="947.95648" fill="#ffffff">comp</tspan></text>
 </g>
 <text style="letter-spacing:0px;word-spacing:0px;" font-family="Sans" font-weight="normal" font-size="9.60000038px" stroke="#ffffff" line-height="125%" font-style="normal" y="1189.9567" x="-1692.9341" stroke-width="0.24000001" xml:space="preserve" fill="#000000"><tspan y="1189.9567" x="-1692.9341" stroke-width="0.24000001"/></text>
 <text style="letter-spacing:0px;word-spacing:0px;" font-weight="normal" xml:space="preserve" font-size="40px" font-style="normal" y="1376.928" x="-2963.6455" font-family="Sans" line-height="125%" fill="#000000"><tspan x="-2963.6455" y="1376.928"/></text>
 <g stroke-linejoin="miter" stroke="#FFF" fill="none" transform="translate(1.4077189,559.99997)">
  <rect stroke-dasharray="none" transform="matrix(0.87711199,0.48028592,0,1,0,0)" height="13.88763" width="5.6790233" stroke-linecap="round" stroke-miterlimit="4" y="-37.489498" x="28.563267" stroke-width="1.06775725"/>
  <path d="m30.532438-20.974519,11.572306-3.371759,0.240112,14.03051-11.883576,3.374301z" stroke-linecap="round" stroke-miterlimit="4" stroke-width="1"/>
  <path d="m24.839706-24.079517,11.883576-3.271954,5.479253,2.617563" stroke-linecap="butt" stroke-width="1px"/>
 </g>
 <g transform="translate(-914.9226,479.94942)">
  <text style="letter-spacing:0px;word-spacing:0px;" line-height="125%" font-weight="normal" font-size="9.60000038px" font-style="normal" y="79.441956" x="934.46088" font-family="Sans" xml:space="preserve" fill="#ffffff"><tspan font-size="9.60000038px" y="79.441956" x="934.46088" fill="#ffffff">server</tspan></text>
 </g>
 <g stroke="#FFF" transform="matrix(0.55102081,0,0,0.55102081,28.11224,-384.09796)">
  <path opacity="0.85500004" stroke-linejoin="miter" d="m12.531496,1051.8622-12.03149606-17.6212,5.41732296,0,0-31.3788,13.1653541,0,0,31.3474,5.417322,0-11.968503,17.6526z" stroke="#FFF" stroke-linecap="butt" stroke-miterlimit="4" stroke-dasharray="none" stroke-width="1.81481326" fill="none"/>
 </g>
 <g stroke-width="1" stroke="#FFF" transform="matrix(1.1249936,0,0,1.1249936,6.8751601,-1072.3449)">
  <path opacity="0.85500004" stroke-linejoin="miter" d="m0.4999999,1040.3441,17.6212001-12.0315,0,5.4173,31.3788,0,0,13.1654-31.3474,0,0,5.4173-17.6526001-11.9685z" stroke="#FFF" stroke-linecap="butt" stroke-miterlimit="4" stroke-dasharray="none" stroke-width="0.88889384" fill="none"/>
 </g>
 <g stroke-width="1" stroke="#FFF" transform="matrix(1.1249936,0,0,1.1249936,6.8751601,-1016.3449)">
  <path opacity="0.85500004" stroke-linejoin="miter" d="m49.5,1040.3441-17.6212-12.0315,0,5.4173-31.37880006,0,0,13.1654,31.34740006,0,0,5.4173,17.6526-11.9685z" stroke="#FFF" stroke-linecap="butt" stroke-miterlimit="4" stroke-dasharray="none" stroke-width="0.88889384" fill="none"/>
 </g>
 <g stroke-width="1" stroke="#FFF" transform="matrix(0.55101028,0,0,0.55101028,28.112372,-440.08702)">
  <path opacity="0.85500004" stroke-linejoin="miter" d="m12.531496,1002.8622-12.03149606,17.6212,5.41732296,0,0,31.3788,13.1653541,0,0-31.3474,5.417322,0-11.968503-17.6526z" stroke="#FFF" stroke-linecap="butt" stroke-miterlimit="4" stroke-dasharray="none" stroke-width="1.81484807" fill="none"/>
 </g>
 <g stroke-width="1" stroke="#FFF" transform="matrix(0.5510262,0,0,0.5510262,-107.21793,-62.215519)">
  <path opacity="0.85500004" stroke-linejoin="miter" d="m210.45695,251.33153,0-23.08628c0-7.09208,5.63794-12.8016,12.64113-12.8016v0.00003h71.85728c7.00319,0,12.64114,5.70952,12.64114,12.8016v23.08628c0,7.09209-5.638,12.77571-12.64114,12.80161l-71.94489,0.26616c-3.12783-0.061-5.92488-1.37352-7.99707-3.01898-1.16483,2.07488-4.54084,1.89831-6.4169,3.0633,4.32227-5.07586,2.13243-7.74847,1.86045-13.11212z" stroke="#FFF" stroke-linecap="round" stroke-miterlimit="4" stroke-width="1.81479573" fill="none"/>
 </g>
 <g stroke-width="1" stroke="#FFF" transform="matrix(0.55102575,0,0,0.55102575,-107.21781,-90.215399)">
  <path opacity="0.85500004" stroke-linejoin="miter" d="m305.73605,251.33153,0-23.08628c0-7.09208-5.63794-12.8016-12.64113-12.8016v0.00003h-71.85728c-7.00319,0-12.64114,5.70952-12.64114,12.8016v23.08628c0,7.09209,5.638,12.77571,12.64114,12.80161l71.94489,0.26616c3.12783-0.061,5.92488-1.37352,7.99707-3.01898,1.16483,2.07488,4.54084,1.89831,6.4169,3.0633-4.32227-5.07586-2.13243-7.74847-1.86045-13.11212z" stroke="#FFF" stroke-linecap="round" stroke-miterlimit="4" stroke-width="1.81479728" fill="none"/>
 </g>
 <g stroke="#FFF" transform="matrix(0.55101543,0,0,0.55085012,21.224613,-215.92258)">
  <path opacity="0.85500004" stroke-linejoin="miter" d="m408.57142,312.36218a104.28572,128.57145,0,1,1,-208.57143,0,104.28572,128.57145,0,1,1,208.57143,0z" transform="matrix(0.23493151,0,0,0.19055556,-46.486298,967.83983)" stroke="#FFF" stroke-linecap="butt" stroke-miterlimit="4" stroke-dasharray="none" stroke-width="8.5786705" fill="none"/>
 </g>
 <g stroke="#FFF" transform="matrix(0.5416733,0,0,0.5416733,21.458167,-234.49481)">
  <path opacity="0.85500004" stroke-linejoin="round" d="m22.153869,1003.3622c-1.93821,0-3.65304,2.7017-4.706519,6.8512-1.971343-2.8317-4.604841-4.4749-7.15976-4.1026-3.8015478,0.5541-6.1400208,5.381-5.6868402,11.2124-2.483592,2.5053-3.87495278,5.6268-3.5554942,8.7155,0.2614202,2.5275,1.6264707,4.6232,3.6969342,6.0824-0.6035043,2.6683-0.6136776,5.4538,0.1024219,7.8786,1.5806524,5.3523,6.1354763,6.9718,10.3104443,3.7692,0.08239,0.3012,0.167326,0.5985,0.258494,0.8913,2.190984,7.035,6.094714,8.8174,8.715592,3.9801,0.852926-1.5742,1.461687-3.66,1.824081-5.994,1.555595,5.376,4.802332,6.378,7.642606,2.0411,0.775751-1.1846,1.448235-2.6536,1.999661-4.2999,0.655541,1.438,1.368079,2.6928,2.116714,3.6944,3.739349,5.0028,7.006321,1.7983,7.3012-7.1575,0.05311-1.6129,0.0079-3.2988-0.126808-5.0142,2.643119-1.7062,4.230775-3.9995,4.106619-6.4294-0.09508-1.861-1.180064-3.5221-2.940963-4.817,0.850135-2.2119,1.446247-4.398,1.707028-6.3954,0.928355-7.1107-2.788589-9.1491-8.305909-4.5516-0.243277,0.2027-0.484909,0.4184-0.726707,0.6395-2.005789-6.5993-7.220956-8.1662-11.739469-3.4698-0.294922,0.3065-0.579413,0.6299-0.853514,0.9729-1.038768-2.7843-2.439133-4.4972-3.979812-4.4972z" stroke="#FFF" stroke-linecap="round" stroke-miterlimit="4" stroke-dasharray="none" stroke-width="3.69226265" fill="none"/>
 </g>
 <g transform="matrix(0.54167313,0,0,0.54167313,7.9163435,-542.49465)" stroke="#FFF" stroke-linecap="round" stroke-miterlimit="4" stroke-width="3.6922636" fill="none">
  <path opacity="0.85500004" stroke-linejoin="round" d="m1,1003.3622,98,0,0,48-98,0z"/>
  <path stroke-linejoin="miter" d="m1.268353,1003.8477,48.725893,23.3589,48.620198-23.676" stroke-dasharray="none"/>
 </g>
 <g stroke-linejoin="miter" transform="matrix(0.55102005,0,0,0.55102005,21.500001,-76.155849)" stroke="#FFF" stroke-linecap="round" stroke-miterlimit="4" stroke-width="1.81481624" fill="none">
  <path opacity="0.85500004" d="m37.49996,1048.4071-5.038943,3.5616-20.961017-9.0435,0.000004-36.3952,5.038943-3.5613,20.961081,9.0437z"/>
  <path opacity="0.85500004" d="m13.70699,1013.8961,18.340945,7.9133m-14.458863-12.5655,0,6.3473m8.163128,21.7364,0,6.3472m-8.639272-9.9876,0,6.3472m4.092287-10.6702,0,6.3473m4.774335-10.2152,0,6.3473m-8.866621-10.2152,0,6.3472m4.774335-10.2151,0,6.3472m-7.957214,14.4578,18.340946,7.9132m-18.340946-13.9132,18.340946,7.9132m-18.340946-13.9133,18.340946,7.9133m-18.340946-13.9133,18.340946,7.9132m-0.000002-13.0532-0.000068,34.0433m-18.225058-41.8406,18.299842,7.9024m0,0.1115,4.997839-3.5723"/>
 </g>
 <g stroke-linejoin="miter" transform="matrix(0.55101995,0,0,0.55101995,28.38776,-300.09705)" stroke="#FFF" fill="none">
  <path opacity="0.85500004" d="m4.1936528,1002.8622,15.6126942,0c2.046284,0,3.693653,1.6474,3.693653,3.6936v41.6127c0,2.0463-1.647369,3.6937-3.693653,3.6937h-15.6126942c-2.0462837,0-3.69365283-1.6474-3.69365283-3.6937v-41.6127c0-2.0462,1.64736913-3.6936,3.69365283-3.6936z" stroke-linecap="butt" stroke-miterlimit="4" stroke-width="1.81481624"/>
  <path opacity="0.85500004" d="m11.442786,4.477612a0.4975125,0.58043124,0,1,1,-0.995025,0,0.4975125,0.58043124,0,1,1,0.995025,0z" transform="matrix(1.005,0,0,0.86142862,1.0000002,1001.2389)" stroke-linecap="butt" stroke-miterlimit="4" stroke-dasharray="none" stroke-width="1.95047295"/>
  <path opacity="0.85500004" d="m13.930348,44.776119a2.0729685,1.907131,0,1,1,-4.1459366,0,2.0729685,1.907131,0,1,1,4.1459366,0z" transform="matrix(0.9648,0,0,1.0486957,0.55999986,1001.0939)" stroke-linecap="butt" stroke-miterlimit="4" stroke-dasharray="none" stroke-width="1.80421901"/>
  <path d="m8.3515752,1007.4203,7.2968498,0" stroke-linecap="round" stroke-width="1.81481636px"/>
  <path opacity="0.85500004" d="m1.6351576,1009.9077,20.7296844,0,0,34.0796-20.7296844,0z" stroke-linecap="round" stroke-miterlimit="4" stroke-width="1.81481636"/>
 </g>
 <g stroke-width="1" stroke="#FFF" transform="matrix(0.55102041,0,0,0.55102041,21.264335,-104.10406)">
  <path opacity="0.85500004" stroke-linejoin="miter" d="M29.673911,49.708657,6.6197319,49.700883-0.49700692,27.772653,18.158786,14.228036,36.805439,27.785233z" transform="matrix(1.3135868,0,0,1.3810356,1.0805499,983.22461)" stroke="#FFF" stroke-linecap="butt" stroke-miterlimit="4" stroke-dasharray="none" stroke-width="1.34741223" fill="none"/>
 </g>
 <g stroke="#FFF" transform="matrix(0.55102039,0,0,0.55102039,21.224479,-132.09749)">
  <path opacity="0.85500004" stroke-linejoin="miter" d="M19.903848,49.423078-3.7535165,49.421578-20.480769,32.692265-20.479269,9.0349012-3.7499568-7.6923517,19.907407-7.6908917,36.63466,9.0384205,36.63316,32.695785z" transform="matrix(0.85791245,0,0,0.85791245,18.070707,1009.4615)" stroke="#FFF" stroke-linecap="butt" stroke-miterlimit="4" stroke-dasharray="none" stroke-width="2.11538434" fill="none"/>
 </g>
 <g stroke-width="1" stroke="#FFF" transform="matrix(0.79710173,0,0,0.79710173,15.072456,-418.89044)">
  <path opacity="0.85500004" stroke-linejoin="miter" d="m0.25,1017.6122,49.5,0,0,34.5-49.5,0z" stroke="#FFF" stroke-linecap="round" stroke-miterlimit="4" stroke-width="0.62727255" fill="none"/>
 </g>
 <g stroke-linejoin="miter" transform="matrix(0.5508672,0,0,0.5508672,21.22832,-47.940139)" stroke="#FFF" stroke-linecap="butt">
  <path opacity="0.85500004" d="m377.14285,248.07646a128.57143,121.42857,0,1,1,-257.14285,0,128.57143,121.42857,0,1,1,257.14285,0z" transform="matrix(0.19055556,0,0,0.2017647,-22.366667,977.30911)" stroke-miterlimit="4" stroke-dasharray="none" stroke-width="9.25805378" fill="none"/>
  <path d="m8.6238532,1033.2797c15.9633018,20,32.1559628,0.3211,32.1559628,0.3211" stroke-width="1.81531954px" fill="none"/>
  <path opacity="0.85500004" d="m18.073394,18.348623a1.7431195,1.8348627,0,1,1,-3.486239,0,1.7431195,1.8348627,0,1,1,3.486239,0z" transform="matrix(1,0,0,1.375,1.5596332,996.81173)" stroke-miterlimit="4" stroke-dasharray="none" stroke-width="1.54810977" fill="#000"/>
  <path opacity="0.85500004" d="m18.073394,18.348623a1.7431195,1.8348627,0,1,1,-3.486239,0,1.7431195,1.8348627,0,1,1,3.486239,0z" transform="matrix(1,0,0,1.375,15.412844,996.81173)" stroke-miterlimit="4" stroke-dasharray="none" stroke-width="1.54810977" fill="#000"/>
  <path d="m6.0550461,1033.3713c3.3944951,0.9175,4.0366969-2.2017,4.0366969-2.2017" stroke-width="1.81531954px" fill="none"/>
  <path d="m43.577982,1033.7383c-3.394495,0.9175-4.036697-2.2017-4.036697-2.2017" stroke-width="1.81531954px" fill="none"/>
 </g>
 <g stroke-width="1" stroke="#FFF" transform="matrix(0.54167323,0,0,0.54167323,21.456485,-346.49572)">
  <path opacity="0.85500004" stroke-linejoin="round" d="M69.700526,127.06245,40.057669,72.862645-14.142136,43.219794,40.05767,13.576937,69.700521-40.622868,99.343377,13.576938,153.54318,43.219789,99.343377,72.862645z" transform="matrix(0.28625046,0,0,0.28625046,5.0513017,1014.9923)" stroke="#FFF" stroke-linecap="round" stroke-miterlimit="4" stroke-dasharray="none" stroke-width="12.89871311" fill="none"/>
 </g>
 <g stroke="#FFF" transform="matrix(0.54167313,0,0,0.54167313,-4.2685303,151.47528)">
  <path opacity="0.85500004" d="M41.428573,8.5714281,26.071896,24.613671,30.581181,46.358726,10.578627,36.710984-8.7087036,47.719161-5.7142847,25.714285-22.143796,10.772657-0.29058928,6.8206384,8.8427454-13.421972,19.354351,6.1404213z" transform="matrix(0.75392107,0.03152017,-0.03245999,0.79147287,65.539237,146.08018)" stroke="#FFF" stroke-miterlimit="4" stroke-dasharray="none" stroke-width="4.77572918" fill="none"/>
 </g>
 <g stroke-width="1" stroke="#FFF" transform="matrix(0.62790519,0,0,0.62790519,19.459346,-267.09405)">
  <path stroke-linejoin="miter" d="m0.25,1048.875,49,0-24.5-43z" stroke="#FFF" stroke-linecap="butt" stroke-width="1.59259713px" fill="none"/>
 </g>
 <g stroke-linejoin="miter" transform="matrix(0.5556343,0,0,0.5556343,21.109142,-276.83962)" stroke="#FFF" stroke-miterlimit="4" fill="none">
  <path opacity="0.85500004" d="m0.25,1002.6122,49.5,0,0,49.5-49.5,0z" stroke-linecap="round" stroke-width="0.89987242"/>
  <path opacity="0.85500004" d="m0.24999999,1002.6122,49.50000001,0,0,5.9454-49.50000001,0z" stroke-linecap="round" stroke-width="0.89987236"/>
  <path opacity="0.85500004" d="m10.490104,1004.6704,37.339534,0,0,1.7919-37.339534,0z" stroke-linecap="butt" stroke-width="0.89987242"/>
  <path d="m2.5499952,1004.5326-1.1027006,1.0337,1.1027006,0.896" stroke-linecap="butt" stroke-dasharray="none" stroke-width="0.89987242"/>
  <path d="m1.5851322,3.2041419,1.6540509,0" transform="translate(0,1002.3622)" stroke-linecap="butt" stroke-dasharray="none" stroke-width="0.89987242"/>
  <path d="m4.4810764,1004.5326,1.1027006,1.0337-1.1027006,0.896" stroke-linecap="butt" stroke-dasharray="none" stroke-width="0.89987242"/>
  <path d="m5.4459394,1005.5663-1.6540509,0" stroke-linecap="butt" stroke-dasharray="none" stroke-width="0.89987242"/>
  <path opacity="0.85500004" d="m8.7805604,1006.1501c-0.1832264,0.1832-0.4363515,0.2966-0.7159456,0.2966-0.5591882,0-1.0124999-0.4533-1.0124999-1.0125,0-0.5593,0.4533117-1.0125,1.0124999-1.0125,0.2795941,0,0.5885433,0.1691,0.7717698,0.4639" stroke-linecap="round" stroke-width="0.89987242"/>
  <path opacity="0.85500004" d="M9.3810918,2.3635476,8.893122,2.1092147,9.3573656,1.813787z" transform="translate(-0.4942561,1002.8008)" stroke-linecap="butt" stroke-width="0.89987242"/>
 </g>
</svg>
